<?xml version="1.0" encoding="UTF-8"?>
<svg version="1.1" xmlns="http://www.w3.org/2000/svg" width="648" height="157">
<path d="M0 0 C3.02814169 1.17713105 5.99078654 2.44955247 8.95458984 3.78027344 C10.01556885 4.23958252 11.07654785 4.6988916 12.16967773 5.17211914 C18.49902932 7.92686032 24.78052398 10.78305571 31.02099609 13.73339844 C34.81210043 15.4605098 38.65712113 17.02728195 42.51708984 18.59277344 C48.25620303 20.93967589 53.9795841 23.31582371 59.64208984 25.84277344 C60.2832373 26.11597412 60.92438477 26.3891748 61.58496094 26.6706543 C65.85848178 28.61706267 65.85848178 28.61706267 67.17333984 31.11230469 C67.13375281 33.70030719 66.51942319 34.96483153 65.14208984 37.15527344 C63.17089844 38.43554688 63.17089844 38.43554688 60.79052734 39.51464844 C59.93974609 39.9078125 59.08896484 40.30097656 58.21240234 40.70605469 C57.32294922 41.10179687 56.43349609 41.49753906 55.51708984 41.90527344 C54.61990234 42.31648438 53.72271484 42.72769531 52.79833984 43.15136719 C50.58448194 44.16408942 48.3659575 45.16477407 46.14208984 46.15527344 C50.16886853 49.33509129 54.48997497 51.00858286 59.27294922 52.72949219 C61.12255859 53.45996094 61.12255859 53.45996094 64.14208984 55.15527344 C65.39413931 58.3648923 65.31783149 59.63976459 64.20458984 62.90527344 C62.84244435 67.07183613 62.96842546 70.81366388 63.14208984 75.15527344 C63.90521484 75.36152344 64.66833984 75.56777344 65.45458984 75.78027344 C69.14172837 77.6667164 69.79659232 79.26041218 71.14208984 83.15527344 C72.07054015 90.35076332 70.77021441 98.15031772 69.14208984 105.15527344 C65.74047817 108.55688511 61.75548781 108.2397958 57.14208984 108.34277344 C53.40240602 108.29268839 50.39296055 108.18706763 47.14208984 106.15527344 C44.62648023 101.97624221 44.62920625 97.97922382 44.39208984 93.21777344 C44.33666016 92.41919922 44.28123047 91.620625 44.22412109 90.79785156 C43.98685055 86.45867666 43.89769802 83.03393116 46.14208984 79.15527344 C47.15271484 78.35089844 48.16333984 77.54652344 49.20458984 76.71777344 C52.63012051 73.72954456 52.65722866 72.50705218 53.14208984 68.15527344 C45.19405074 71.59141649 37.27536539 75.06226728 29.45458984 78.78027344 C23.74308608 81.48982642 17.94299601 83.82133114 12.02099609 86.03027344 C8.24978619 87.50396198 4.73605112 89.29411492 1.14208984 91.15527344 C-4.33595767 93.89429719 -9.11429958 94.01420456 -14.87744141 92.20996094 C-20.03466042 90.26453313 -25.05212129 88.07236143 -30.06103516 85.77636719 C-35.75037547 83.17808198 -41.51106522 80.78249988 -47.29541016 78.40527344 C-49.38969786 77.53025719 -51.4834385 76.65393058 -53.57666016 75.77636719 C-57.64777414 74.06979546 -61.7313537 72.40045893 -65.82666016 70.75292969 C-67.65018348 69.9926644 -69.47313036 69.23101454 -71.29541016 68.46777344 C-72.1473999 68.13616211 -72.99938965 67.80455078 -73.87719727 67.46289062 C-76.09839159 66.51197135 -77.96673818 65.65941487 -79.85791016 64.15527344 C-80.92456606 60.61367216 -81.54087937 58.52121186 -79.85791016 55.15527344 C-77.24211799 54.07852678 -74.64836067 53.09165779 -71.98291016 52.15527344 C-70.52590392 51.63802342 -69.07012132 51.11731066 -67.61572266 50.59277344 C-66.6433667 50.25052734 -66.6433667 50.25052734 -65.65136719 49.90136719 C-63.57245093 49.10403977 -63.57245093 49.10403977 -60.85791016 47.15527344 C-64.04105341 45.03317793 -67.23902738 43.57488481 -70.79541016 42.21777344 C-74.94853004 40.57887411 -78.47199104 39.09567688 -81.85791016 36.15527344 C-82.48291016 33.59277344 -82.48291016 33.59277344 -81.85791016 31.15527344 C-78.54509884 28.11373452 -74.51502677 26.56164708 -70.42041016 24.84277344 C-64.33233201 22.25827015 -58.32202134 19.53189129 -52.3215332 16.74975586 C-46.56659839 14.10046572 -40.77477704 11.53506724 -34.98291016 8.96777344 C-33.81244141 8.44763672 -32.64197266 7.9275 -31.43603516 7.39160156 C-22.10054395 3.24778659 -22.10054395 3.24778659 -17.66259766 1.35449219 C-11.53830354 -1.26411268 -6.5951042 -1.94934739 0 0 Z M-15.48291016 11.21777344 C-21.04049906 13.88498065 -26.64044078 16.35125771 -32.35791016 18.65527344 C-39.18637796 21.41684335 -45.86409663 24.42078977 -52.51806641 27.57714844 C-56.60217242 29.50694824 -60.72142715 31.3410265 -64.85791016 33.15527344 C-62.63695635 35.63238957 -60.62726789 36.88911328 -57.56884766 38.17089844 C-56.29243408 38.71182129 -56.29243408 38.71182129 -54.99023438 39.26367188 C-54.08031738 39.64040039 -53.17040039 40.01712891 -52.23291016 40.40527344 C-51.29592285 40.80004883 -50.35893555 41.19482422 -49.39355469 41.6015625 C-42.82512125 44.36170801 -36.23410736 47.06797516 -29.63769531 49.76049805 C-24.75438619 51.76110996 -19.93777295 53.88075146 -15.15478516 56.11230469 C-14.39681641 56.45648438 -13.63884766 56.80066406 -12.85791016 57.15527344 C-11.73147095 57.74876587 -11.73147095 57.74876587 -10.58227539 58.35424805 C-6.92960148 59.42821732 -5.40383713 58.57561508 -1.97119141 57.01464844 C-0.86839844 56.5209375 0.23439453 56.02722656 1.37060547 55.51855469 C2.51207031 54.98617187 3.65353516 54.45378906 4.82958984 53.90527344 C5.98265625 53.38835937 7.13572266 52.87144531 8.32373047 52.33886719 C14.16042733 49.89124152 14.16042733 49.89124152 19.14208984 46.15527344 C16.53913709 44.84031802 13.93480952 43.52822357 11.32958984 42.21777344 C10.22260742 41.65799805 10.22260742 41.65799805 9.09326172 41.08691406 C8.38105469 40.72919922 7.66884766 40.37148437 6.93505859 40.00292969 C6.28045654 39.67301025 5.62585449 39.34309082 4.95141602 39.00317383 C2.98078363 38.03693665 2.98078363 38.03693665 0.14208984 37.15527344 C-0.62103516 37.62964844 -1.38416016 38.10402344 -2.17041016 38.59277344 C-5.45778561 40.50403824 -7.10606805 40.69125088 -10.85791016 40.15527344 C-16.43685752 36.9973787 -16.43685752 36.9973787 -17.85791016 34.15527344 C-18.25585081 30.01669065 -18.05416199 27.5791774 -16.29541016 23.78027344 C-13.85791016 21.15527344 -13.85791016 21.15527344 -10.54541016 20.09277344 C-6.18542294 20.16667153 -3.63050843 20.97877444 0.14208984 23.15527344 C0.5798877 23.94949707 1.01768555 24.7437207 1.46875 25.56201172 C3.60367985 28.87062345 5.63852409 29.81429 9.16552734 31.52246094 C10.35146484 32.09738281 11.53740234 32.67230469 12.75927734 33.26464844 C13.68498535 33.69874023 13.68498535 33.69874023 14.62939453 34.14160156 C16.5142573 35.02893996 18.38268075 35.9455744 20.25146484 36.86621094 C27.41625131 40.70705957 27.41625131 40.70705957 35.14208984 40.15527344 C37.60966609 39.17530091 40.0306096 38.16871111 42.45458984 37.09277344 C43.09976563 36.81111328 43.74494141 36.52945313 44.40966797 36.23925781 C45.98907342 35.54899913 47.56585478 34.85274146 49.14208984 34.15527344 C46.80462648 31.50897177 44.56070461 30.26368796 41.32958984 28.87792969 C40.34877441 28.45229736 39.36795898 28.02666504 38.35742188 27.58813477 C37.2963623 27.13591553 36.23530273 26.68369629 35.14208984 26.21777344 C32.88910724 25.24469083 30.63651736 24.27069856 28.38427734 23.29589844 C27.20575195 22.78736328 26.02722656 22.27882813 24.81298828 21.75488281 C21.05587914 20.12503261 17.32032975 18.44900561 13.58740234 16.76464844 C12.35173128 16.20856409 11.11605427 15.65249298 9.88037109 15.09643555 C7.4984934 14.02282027 5.11824089 12.94559105 2.73974609 11.86450195 C1.65822266 11.37908936 0.57669922 10.89367676 -0.53759766 10.39355469 C-1.4939209 9.96083252 -2.45024414 9.52811035 -3.43554688 9.08227539 C-8.20654242 7.25648724 -11.20600816 9.11683913 -15.48291016 11.21777344 Z M-9.85791016 29.15527344 C-9.52791016 29.81527344 -9.19791016 30.47527344 -8.85791016 31.15527344 C-8.19791016 31.15527344 -7.53791016 31.15527344 -6.85791016 31.15527344 C-6.85791016 30.49527344 -6.85791016 29.83527344 -6.85791016 29.15527344 C-7.84791016 29.15527344 -8.83791016 29.15527344 -9.85791016 29.15527344 Z M26.06396484 53.91308594 C25.23936768 54.28892822 24.41477051 54.66477051 23.56518555 55.05200195 C22.68306396 55.45733154 21.80094238 55.86266113 20.89208984 56.28027344 C19.06806697 57.10492558 17.24384722 57.92914239 15.41943359 58.75292969 C12.27669682 60.1780653 9.14383091 61.62072115 6.02099609 63.08886719 C4.255625 63.89517578 4.255625 63.89517578 2.45458984 64.71777344 C1.44009766 65.1934375 0.42560547 65.66910156 -0.61962891 66.15917969 C-8.45096351 68.56809443 -14.37141575 67.05493986 -21.54541016 63.53027344 C-23.11551117 62.79935023 -24.6858264 62.06888701 -26.25634766 61.33886719 C-27.79020351 60.61100615 -29.32405773 59.88314169 -30.85791016 59.15527344 C-33.45182338 57.9436983 -36.0562458 56.75989325 -38.67041016 55.59277344 C-39.74935547 55.09648438 -40.82830078 54.60019531 -41.93994141 54.08886719 C-47.34707546 52.35887383 -51.56312482 54.70581255 -56.67041016 56.71777344 C-57.83185547 57.1728125 -58.99330078 57.62785156 -60.18994141 58.09667969 C-61.07037109 58.44601563 -61.95080078 58.79535156 -62.85791016 59.15527344 C-62.85791016 59.81527344 -62.85791016 60.47527344 -62.85791016 61.15527344 C-62.09349609 61.435 -61.32908203 61.71472656 -60.54150391 62.00292969 C-54.62248679 64.21810938 -48.87555463 66.55885395 -43.17041016 69.28027344 C-41.91955032 69.86195457 -40.66821497 70.44261382 -39.41650391 71.02246094 C-36.88386861 72.19639131 -34.36856602 73.39535915 -31.86230469 74.625 C-28.50504535 76.26241945 -25.12235848 77.83572297 -21.73291016 79.40527344 C-20.66081299 79.9442627 -19.58871582 80.48325195 -18.48413086 81.03857422 C-13.82332423 83.145246 -10.54234842 84.50145835 -5.43432617 83.45166016 C-2.12391434 82.19438494 0.98747898 80.76045389 4.14208984 79.15527344 C5.53998309 78.55367902 6.94165256 77.96067418 8.34912109 77.38183594 C9.53892578 76.85332031 10.72873047 76.32480469 11.95458984 75.78027344 C13.30870591 75.18120071 14.66287417 74.58224597 16.01708984 73.98339844 C16.69513672 73.68240234 17.37318359 73.38140625 18.07177734 73.07128906 C20.84528292 71.84414367 23.62591403 70.63361592 26.40649414 69.42260742 C33.34830146 66.39813421 40.262048 63.31834352 47.14208984 60.15527344 C45.55669477 56.98448329 42.33797839 56.32834719 39.20458984 55.03027344 C38.558125 54.753125 37.91166016 54.47597656 37.24560547 54.19042969 C32.47334475 52.17844853 30.69607022 51.78708908 26.06396484 53.91308594 Z M54.26708984 84.34277344 C52.92787199 86.09445911 52.92787199 86.09445911 53.32958984 88.21777344 C54.07679321 90.3423987 54.07679321 90.3423987 56.14208984 92.15527344 C59.07662245 91.78845686 60.0064623 91.29090098 62.14208984 89.15527344 C61.82167587 86.55246776 61.82167587 86.55246776 61.14208984 84.15527344 C57.57382959 83.00399 57.57382959 83.00399 54.26708984 84.34277344 Z " fill="#0A0A0A" transform="translate(100.85791015625,24.8447265625)"/>
<path d="M0 0 C2.27611698 2.27611698 2.47719417 3.29363784 3.1484375 6.375 C3.34735596 7.27009277 3.54627441 8.16518555 3.7512207 9.08740234 C4.05999146 10.52913818 4.05999146 10.52913818 4.375 12 C4.59051514 12.97791504 4.80603027 13.95583008 5.02807617 14.96337891 C5.47240832 16.98176219 5.9137057 19.00081582 6.35205078 21.02050781 C7.14719898 24.67687127 7.96184799 28.32871015 8.77783203 31.98046875 C9.52334088 35.31925904 10.26180949 38.65958486 11 42 C12.66815838 37.23289128 13.95639845 32.43654675 15.1640625 27.5390625 C15.36099701 26.74849457 15.55793152 25.95792664 15.76083374 25.1434021 C16.38444932 22.63781541 17.00477355 20.13142753 17.625 17.625 C18.0492614 15.91791461 18.47373834 14.21088278 18.8984375 12.50390625 C19.93478642 8.33655295 20.96818588 4.1684783 22 0 C24.54271516 -0.17918399 27.08561141 -0.35285489 29.62890625 -0.5234375 C30.69896912 -0.5996936 30.69896912 -0.5996936 31.79064941 -0.67749023 C37.23813271 -1.03659633 42.62092989 -1.09776941 48 0 C50.01695919 2.01695919 49.67089866 5.8772583 49.96484375 8.6484375 C50.05128647 9.44655853 50.13772919 10.24467957 50.22679138 11.06698608 C51.28634098 21.23185124 51.91433611 31.42733559 52.5625 41.625 C52.75101225 44.56037053 52.94076778 47.49564496 53.13328552 50.43075562 C53.25152308 52.2359548 53.36746239 54.04130667 53.48060608 55.84683228 C53.73246375 59.71522014 54.04088248 63.55254281 54.53662109 67.39794922 C54.97625634 70.81542995 55.1016086 74.05844279 55.0625 77.5 C55.05347656 78.5415625 55.04445313 79.583125 55.03515625 80.65625 C55.02355469 81.4296875 55.01195312 82.203125 55 83 C51.71428629 84.64285685 48.10752467 84.22630526 44.5 84.25 C43.71496094 84.270625 42.92992187 84.29125 42.12109375 84.3125 C39.84375 84.328125 39.84375 84.328125 36 84 C33.55193767 80.32790651 33.70746851 78.39824132 33.62109375 74.015625 C33.60409927 73.32297546 33.5871048 72.63032593 33.56959534 71.91668701 C33.51653393 69.69455176 33.47635021 67.47242524 33.4375 65.25 C33.37836683 62.35926059 33.31363809 59.4686794 33.24609375 56.578125 C33.22221085 55.51386292 33.22221085 55.51386292 33.19784546 54.42810059 C33.01826487 47.268916 32.54288053 40.14021496 32 33 C31.7326001 34.08007324 31.4652002 35.16014648 31.18969727 36.27294922 C30.19874918 40.27289088 29.20470606 44.27205794 28.2097168 48.27099609 C27.77918125 50.00320741 27.34948992 51.73562878 26.9206543 53.46826172 C26.30478196 55.95595875 25.68589622 58.44288922 25.06640625 60.9296875 C24.87470352 61.70682098 24.68300079 62.48395447 24.48548889 63.28463745 C23.11387171 68.77225659 23.11387171 68.77225659 22 71 C14.91695534 72.8161653 6.70700203 73.07542196 0 70 C-1.29199219 67.34545898 -1.29199219 67.34545898 -2.046875 63.99609375 C-2.33433594 62.77986328 -2.62179688 61.56363281 -2.91796875 60.31054688 C-3.19253906 59.03244141 -3.46710938 57.75433594 -3.75 56.4375 C-4.04003906 55.18646484 -4.33007812 53.93542969 -4.62890625 52.64648438 C-5.44537164 49.10287547 -6.22801448 45.55352632 -7 42 C-7.4001505 40.19902052 -7.80104346 38.3982056 -8.203125 36.59765625 C-8.46609375 35.41042969 -8.7290625 34.22320312 -9 33 C-9.8657405 43.91946726 -10.30334882 54.8107154 -10.60546875 65.75976562 C-11.10522448 82.10522448 -11.10522448 82.10522448 -13 84 C-15.82256491 84.10007008 -18.6152319 84.13875598 -21.4375 84.125 C-22.22705078 84.12886719 -23.01660156 84.13273437 -23.83007812 84.13671875 C-29.74673867 84.12663067 -29.74673867 84.12663067 -32 83 C-32.2772065 73.97538852 -31.73829871 65.20759227 -30.85205078 56.23730469 C-30.05629086 48.04249458 -29.51244171 39.84191354 -29 31.625 C-27.12212287 2.12212287 -27.12212287 2.12212287 -25 0 C-16.88159656 -1.62368069 -8.15477439 -1.17224882 0 0 Z " fill="#0E0F0E" transform="translate(234,36)"/>
<path d="M0 0 C4.67516392 4.03764157 6.77842693 7.21448152 7.27124023 13.40991211 C7.28356689 14.68616455 7.29589355 15.96241699 7.30859375 17.27734375 C7.33375003 18.69206148 7.35914811 20.10677492 7.38476562 21.52148438 C7.41348011 23.73102743 7.43752546 25.94049636 7.45629883 28.15014648 C7.47806245 30.29709146 7.51749853 32.44319412 7.55859375 34.58984375 C7.57204834 35.86722412 7.58550293 37.14460449 7.59936523 38.46069336 C8.02968902 42.26228013 9.1880326 44.66814263 11 48 C10.79370466 52.12590684 9.02304063 55.43944849 7 59 C3.54463017 60.72768491 -0.30891773 59.78716629 -4 59 C-5.33333333 58 -6.66666667 57 -8 56 C-10.44278263 56.57442644 -10.44278263 56.57442644 -13 58 C-20.0541796 61.59624842 -26.17212114 62.19229014 -33.8125 59.8125 C-39.28651863 56.69982274 -42.89747459 52.97559855 -45 47 C-45.89545888 39.88000987 -45.31891051 33.86997435 -41 28 C-34.55469727 21.55469727 -29.44765794 19.83039558 -20.5625 19.8125 C-18.37463182 19.86040952 -16.18685984 19.9181065 -14 20 C-14.495 17.525 -14.495 17.525 -15 15 C-19.89841361 13.97949716 -22.97176555 14.10962455 -27.875 15.5078125 C-31.48834319 16.34472655 -35.34272576 16.70565665 -39 16 C-41.66611551 12.00082674 -43.35024481 8.12583374 -42.55078125 3.2734375 C-42.36902344 2.52320313 -42.18726563 1.77296875 -42 1 C-29.58627569 -3.38131446 -11.82996941 -7.88664627 0 0 Z M-21.8125 35.0625 C-24.3346598 36.86424963 -24.3346598 36.86424963 -24.375 40.125 C-24.31120653 42.89203039 -24.31120653 42.89203039 -23 44 C-19.54178598 44.25003964 -19.54178598 44.25003964 -16 44 C-13.58878141 42.04366025 -13.58878141 42.04366025 -13.875 38.375 C-13.91625 37.26125 -13.9575 36.1475 -14 35 C-17.17393763 34.00247675 -18.65554385 33.86987212 -21.8125 35.0625 Z " fill="#0E0F0E" transform="translate(614,60)"/>
<path d="M0 0 C1.89510699 -0.08160748 3.79124504 -0.13946459 5.6875 -0.1875 C6.74324219 -0.22230469 7.79898437 -0.25710937 8.88671875 -0.29296875 C13.34076628 0.12616998 15.88501354 1.88501354 19 5 C19.59425781 4.6390625 20.18851562 4.278125 20.80078125 3.90625 C27.30971859 0.26205491 32.56358843 -1.06569048 40 0 C45.52350761 1.90812081 48.4936973 4.98266205 51.08789062 10.17919922 C52.23397354 13.72358946 52.31616881 17.07167002 52.34375 20.7578125 C52.3583728 21.50151093 52.37299561 22.24520935 52.38806152 23.01144409 C52.4343517 25.38257478 52.46861988 27.75362812 52.5 30.125 C52.68217446 44.66400893 52.68217446 44.66400893 55 59 C49.62249573 63.26491718 44.70896756 63.73948684 38 63 C35 61.5 35 61.5 33 59 C30.93042691 52.58937116 30.7862676 46.75797079 30.9375 40.0625 C31.06369406 33.2620422 30.89300975 26.74949227 30 20 C27.03 20.33 24.06 20.66 21 21 C21.01047363 22.20124512 21.02094727 23.40249023 21.03173828 24.64013672 C21.06787287 29.08672112 21.09087657 33.53329248 21.10986328 37.97998047 C21.11993582 39.90643494 21.13359443 41.83287408 21.15087891 43.75927734 C21.17507241 46.52445252 21.18647036 49.289426 21.1953125 52.0546875 C21.20563507 52.9193161 21.21595764 53.7839447 21.22659302 54.67477417 C21.22699106 56.78453521 21.12265243 58.89380718 21 61 C19 63 19 63 17.12060547 63.22705078 C16.37697754 63.21657715 15.63334961 63.20610352 14.8671875 63.1953125 C14.06152344 63.18886719 13.25585938 63.18242188 12.42578125 63.17578125 C11.16314453 63.15064453 11.16314453 63.15064453 9.875 63.125 C8.60076172 63.11146484 8.60076172 63.11146484 7.30078125 63.09765625 C5.20040116 63.07405647 3.10016556 63.03818483 1 63 C-0.77168183 59.1910013 -1.22645267 56.29417738 -1.13525391 52.1081543 C-1.11508209 50.94732834 -1.09491028 49.78650238 -1.0741272 48.59049988 C-1.04193085 47.34762711 -1.0097345 46.10475433 -0.9765625 44.82421875 C-0.95153656 43.54392288 -0.92651062 42.26362701 -0.90072632 40.9445343 C-0.83431056 37.55280294 -0.75536833 34.16147602 -0.67376709 30.77008057 C-0.59261615 27.30455969 -0.5233801 23.83880272 -0.453125 20.37304688 C-0.31304181 13.58176084 -0.16105012 6.79081942 0 0 Z " fill="#0E0F0E" transform="translate(359,57)"/>
<path d="M0 0 C6.27503077 5.84596884 9.45700767 15.13234068 9.953125 23.48046875 C10.08859724 34.37469433 8.61302685 42.76252637 2.75 52.0625 C2.09 52.0625 1.43 52.0625 0.75 52.0625 C0.75 52.7225 0.75 53.3825 0.75 54.0625 C-8.3900467 59.56683924 -16.84041744 61.60211822 -27.4375 59.3125 C-32.064441 58.00107161 -36.05764086 56.01363313 -38.625 51.8125 C-38.83125 51.235 -39.0375 50.6575 -39.25 50.0625 C-39.91 50.0625 -40.57 50.0625 -41.25 50.0625 C-47.16376674 39.41771987 -48.97517147 28.27568587 -46 16.375 C-43.6194346 8.54999335 -40.22437858 2.62001471 -33.25 -1.9375 C-22.58604377 -7.29971618 -10.07951006 -6.00893869 0 0 Z M-22.96875 13.43359375 C-26.20915347 17.66674353 -25.91531439 21.98898258 -25.75 27.125 C-25.75257813 28.00994141 -25.75515625 28.89488281 -25.7578125 29.80664062 C-25.6775561 35.15572964 -25.21518141 39.09731859 -21.25 43.0625 C-17.76944126 42.88682642 -17.76944126 42.88682642 -14.25 42.0625 C-9.82393727 35.4234059 -10.86391844 25.04457632 -11.7421875 17.3203125 C-12.1528885 14.85517996 -12.1528885 14.85517996 -14.0625 12.375 C-17.87312172 10.08862697 -19.71383455 10.59489593 -22.96875 13.43359375 Z " fill="#0E0F0E" transform="translate(509.25,60.9375)"/>
<path d="M0 0 C4.80908217 3.82680156 8.58449899 8.1531916 9.35717773 14.41601562 C9.4520598 17.48244296 9.42196942 20.51937744 9.3359375 23.5859375 C9.32143555 25.17148438 9.32143555 25.17148438 9.30664062 26.7890625 C9.19203563 34.54233937 9.19203563 34.54233937 8.0234375 35.7109375 C5.80488486 35.79877292 3.58355254 35.81788359 1.36328125 35.80859375 C0.36658165 35.80647133 0.36658165 35.80647133 -0.6502533 35.80430603 C-2.77990149 35.79869268 -4.90944589 35.78613804 -7.0390625 35.7734375 C-8.47981619 35.76842421 -9.92057153 35.76386101 -11.36132812 35.75976562 C-14.89977352 35.74871895 -18.43815789 35.73144542 -21.9765625 35.7109375 C-20.77495196 39.28231645 -20.77495196 39.28231645 -18.3515625 42.0234375 C-12.14588139 43.81981887 -6.99195287 42.52690441 -0.9765625 40.7109375 C1.9609375 40.5859375 1.9609375 40.5859375 4.0234375 40.7109375 C9.09835068 49.84125005 9.09835068 49.84125005 8.0234375 53.7109375 C-0.41958262 60.58316318 -10.42742835 61.50791879 -20.9765625 60.7109375 C-29.13443186 59.22236076 -34.02942177 56.39486341 -39.2265625 49.8984375 C-44.73526168 39.86473543 -44.34272656 26.30265929 -42.359375 15.28125 C-40.22879841 8.62555499 -36.4368226 3.08855982 -30.9765625 -1.2890625 C-21.40325169 -6.18521656 -9.05013196 -5.90225997 0 0 Z M-20.8515625 13.4609375 C-22.2747049 15.88795955 -22.2747049 15.88795955 -21.9765625 19.7109375 C-17.6865625 19.7109375 -13.3965625 19.7109375 -8.9765625 19.7109375 C-10.38027771 14.0090799 -10.38027771 14.0090799 -12.9765625 11.7109375 C-17.34174055 11.1299261 -17.34174055 11.1299261 -20.8515625 13.4609375 Z " fill="#0E0F0E" transform="translate(339.9765625,60.2890625)"/>
<path d="M0 0 C1.1653125 -0.01417969 2.330625 -0.02835938 3.53125 -0.04296875 C6.5 0.1875 6.5 0.1875 8.5 2.1875 C8.64507695 4.93235593 8.68652423 7.57230543 8.625 10.3125 C8.61597656 11.06660156 8.60695313 11.82070313 8.59765625 12.59765625 C8.5740687 14.46107254 8.53819719 16.32432593 8.5 18.1875 C13.12 18.1875 17.74 18.1875 22.5 18.1875 C23.17238197 23.79068306 23.61601376 27.6074312 22.5 33.1875 C17.88 33.1875 13.26 33.1875 8.5 33.1875 C8.5 42.7575 8.5 52.3275 8.5 62.1875 C12.13 62.5175 15.76 62.8475 19.5 63.1875 C21.76277372 68.84443431 21.76277372 68.84443431 21.6875 72.875 C21.68105469 73.64199219 21.67460937 74.40898438 21.66796875 75.19921875 C21.5 77.1875 21.5 77.1875 20.5 79.1875 C11.40595908 80.97064528 0.60708196 82.18006271 -7.5 77.1875 C-11.89144817 71.49048616 -12.64585108 67.24251881 -12.59765625 60.23828125 C-12.5962413 59.46566452 -12.59482635 58.69304779 -12.59336853 57.89701843 C-12.58777466 55.43130611 -12.57522333 52.96568485 -12.5625 50.5 C-12.55748421 48.82747527 -12.55292144 47.15494912 -12.54882812 45.48242188 C-12.53780724 41.38407954 -12.52054684 37.28580521 -12.5 33.1875 C-15.47 33.1875 -18.44 33.1875 -21.5 33.1875 C-22.35330338 27.35274985 -22.98351814 22.73889349 -20.5 17.1875 C-17.86 17.5175 -15.22 17.8475 -12.5 18.1875 C-12.54640625 17.46304688 -12.5928125 16.73859375 -12.640625 15.9921875 C-12.87669492 9.66888613 -12.78375687 5.97522827 -8.5 1.1875 C-5.65161879 -0.2366906 -3.17212092 0.01754492 0 0 Z " fill="#0E0F0E" transform="translate(437.5,39.8125)"/>
<path d="M0 0 C7.37371799 0.03413758 11.53308238 2.12893171 17 7 C17.7425 6.21625 18.485 5.4325 19.25 4.625 C23.54218518 0.52791415 26.19652369 -0.26761454 32.125 -0.1875 C33.17945313 -0.18105469 34.23390625 -0.17460938 35.3203125 -0.16796875 C38 0 38 0 40 1 C40.40735632 8.46819926 39.19567905 14.70648143 35 21 C34.40832031 20.88140625 33.81664062 20.7628125 33.20703125 20.640625 C32.41683594 20.51171875 31.62664063 20.3828125 30.8125 20.25 C30.03519531 20.11078125 29.25789062 19.9715625 28.45703125 19.828125 C24.79651126 20.08418681 23.50343787 21.34725579 21 24 C20.48495326 27.07922059 20.27802262 29.62257743 20.29296875 32.703125 C20.27784744 33.54091492 20.26272614 34.37870483 20.24714661 35.24188232 C20.20423992 37.91152802 20.19542914 40.58004373 20.1875 43.25 C20.16435787 45.0625301 20.13899312 46.87503329 20.11132812 48.6875 C20.04844684 53.12510001 20.01613475 57.56199374 20 62 C16.71855481 63.64072259 13.10210004 63.14274434 9.5 63.125 C8.71496094 63.12886719 7.92992187 63.13273437 7.12109375 63.13671875 C1.25330787 63.12665394 1.25330787 63.12665394 -1 62 C-1.01030746 61.44511902 -1.02061493 60.89023804 -1.03123474 60.31854248 C-1.13941316 54.54346198 -1.25400195 48.76853393 -1.37231445 42.99365234 C-1.41562691 40.83841135 -1.45730463 38.68313686 -1.49731445 36.52783203 C-1.55510618 33.42991033 -1.61877523 30.33215666 -1.68359375 27.234375 C-1.70866249 25.78886261 -1.70866249 25.78886261 -1.73423767 24.31414795 C-1.75418289 23.41351624 -1.77412811 22.51288452 -1.79467773 21.58496094 C-1.81799416 20.39915436 -1.81799416 20.39915436 -1.84178162 19.18939209 C-1.99857453 17.01972541 -2.40615681 15.08863467 -3 13 C-3.66 13 -4.32 13 -5 13 C-5.64165788 7.73840541 -4.20577001 5.31407151 -1.09375 1.3203125 C-0.55234375 0.66675781 -0.55234375 0.66675781 0 0 Z " fill="#0E0F0E" transform="translate(529,57)"/>
<path d="M0 0 C2.105184 3.157776 2.25289344 3.95397134 2.1875 7.5625 C2.18105469 8.34753906 2.17460937 9.13257812 2.16796875 9.94140625 C2 12 2 12 1 14 C-6.25849651 15.42323461 -13.63230047 15.09313103 -21 15 C-21 14.01 -21 13.02 -21 12 C-13.74 11.67 -6.48 11.34 1 11 C0.67 7.37 0.34 3.74 0 0 Z " fill="#030403" transform="translate(457,105)"/>
<path d="M0 0 C0.33 0 0.66 0 1 0 C1 14.52 1 29.04 1 44 C4.465 43.505 4.465 43.505 8 43 C6.8125 44.5625 6.8125 44.5625 5 46 C3.35 45.67 1.7 45.34 0 45 C0 30.15 0 15.3 0 0 Z " fill="#010101" transform="translate(528,74)"/>
<path d="M0 0 C0 0.66 0 1.32 0 2 C-1.609375 3.25390625 -1.609375 3.25390625 -3.75 4.5625 C-4.44609375 4.99691406 -5.1421875 5.43132812 -5.859375 5.87890625 C-11.31738372 8.73738892 -18.33020567 9.11717633 -24.20703125 7.328125 C-25.83768482 6.62405462 -27.42528301 5.82159147 -29 5 C-26.38409611 4.03114671 -25.35089855 3.84404509 -22.75 5 C-17.93045298 6.75256255 -13.87617816 5.83507783 -9.33203125 3.8125 C-7.57527638 2.92018006 -5.83063947 2.00342993 -4.1015625 1.05859375 C-2 0 -2 0 0 0 Z " fill="#020302" transform="translate(606,113)"/>
<path d="M0 0 C-0.5775 0.226875 -1.155 0.45375 -1.75 0.6875 C-4.86151615 2.50255109 -6.11963542 3.86605903 -8 7 C-8.49205532 10.78276874 -8.37663489 14.50614755 -8.25 18.3125 C-8.23195313 19.33923828 -8.21390625 20.36597656 -8.1953125 21.42382812 C-8.14831063 23.95017885 -8.08262272 26.47460469 -8 29 C-8.66 28.67 -9.32 28.34 -10 28 C-10.1164862 24.27109745 -10.18734576 20.54266486 -10.25 16.8125 C-10.28351563 15.75740234 -10.31703125 14.70230469 -10.3515625 13.61523438 C-10.45071882 5.75709587 -10.45071882 5.75709587 -8.109375 1.82421875 C-4.96955887 -0.89114075 -3.89772061 -1.16931618 0 0 Z " fill="#030202" transform="translate(493,71)"/>
<path d="M0 0 C1.60597325 0.45196245 3.20972508 0.91182327 4.8125 1.375 C6.15248047 1.75785156 6.15248047 1.75785156 7.51953125 2.1484375 C10 3 10 3 13 5 C12.67 5.66 12.34 6.32 12 7 C11.43152344 6.69964844 10.86304687 6.39929687 10.27734375 6.08984375 C4.94289971 3.46269685 1.79599671 2.52017105 -4 4 C-2.68 2.68 -1.36 1.36 0 0 Z " fill="#010201" transform="translate(92,31)"/>
<path d="M0 0 C0.515625 0.391875 1.03125 0.78375 1.5625 1.1875 C-4.39046558 4.62190322 -10.77428156 4.32076437 -17.4375 4.1875 C-17.7675 3.5275 -18.0975 2.8675 -18.4375 2.1875 C-17.86902344 2.22230469 -17.30054688 2.25710937 -16.71484375 2.29296875 C-12.57245115 2.43819453 -9.38721627 2.41907194 -5.625 0.5625 C-2.4375 -0.8125 -2.4375 -0.8125 0 0 Z " fill="#030303" transform="translate(503.4375,116.8125)"/>
<path d="M0 0 C3.5 0.1875 3.5 0.1875 5.5 1.1875 C5.17 2.1775 4.84 3.1675 4.5 4.1875 C4.17 3.8575 3.84 3.5275 3.5 3.1875 C-0.76080589 2.73770945 -0.76080589 2.73770945 -4.375 4.6875 C-4.74625 5.1825 -5.1175 5.6775 -5.5 6.1875 C-5.5 1.07153166 -5.12552178 0.27458152 0 0 Z " fill="#030302" transform="translate(323.5,69.8125)"/>
<path d="M0 0 C0 0.66 0 1.32 0 2 C-5.22512279 3.46670113 -9.5814234 4.22577402 -15 4 C-10.7923604 -0.2076396 -5.6868542 -0.22747417 0 0 Z " fill="#040303" transform="translate(592,72)"/>
<path d="M0 0 C-2.45620851 1.17133058 -4.91474917 2.33721722 -7.375 3.5 C-8.07367188 3.83386719 -8.77234375 4.16773437 -9.4921875 4.51171875 C-14.7734375 7 -14.7734375 7 -17 7 C-17 6.34 -17 5.68 -17 5 C-15.41925436 4.18247697 -13.83528777 3.37118003 -12.25 2.5625 C-11.36828125 2.11003906 -10.4865625 1.65757813 -9.578125 1.19140625 C-5.78457923 -0.56167172 -4.03309764 -1.34436588 0 0 Z " fill="#020201" transform="translate(133,77)"/>
<path d="M0 0 C0.99 0.495 0.99 0.495 2 1 C2.59355614 3.64860427 2.74209269 6.29197322 3 9 C2.01 9 1.02 9 0 9 C0 6.03 0 3.06 0 0 Z " fill="#050303" transform="translate(497,78)"/>
<path d="M0 0 C0.66 0.66 1.32 1.32 2 2 C-1.6441774 4.4294516 -3.71241272 4.16179575 -8 4 C-5.53721199 1.53721199 -3.29323018 1.00228745 0 0 Z " fill="#030302" transform="translate(338,116)"/>
</svg>
