<?xml version="1.0" encoding="UTF-8"?>
<svg version="1.1" xmlns="http://www.w3.org/2000/svg" width="920" height="206">
<path d="M0 0 C303.6 0 607.2 0 920 0 C920 67.98 920 135.96 920 206 C616.4 206 312.8 206 0 206 C0 138.02 0 70.04 0 0 Z " fill="#27334C" transform="translate(0,0)"/>
<path d="M0 0 C1.22570063 0.56357772 2.44878002 1.13287889 3.66967773 1.70678711 C4.67854538 2.17256416 4.67854538 2.17256416 5.70779419 2.64775085 C7.16368475 3.32034247 8.61850365 3.99525766 10.07235718 4.67224121 C13.98107986 6.49196418 17.89775383 8.29440576 21.81420898 10.09741211 C22.62691757 10.47195526 23.43962616 10.84649841 24.27696228 11.23239136 C34.82114903 16.0813794 45.44090848 20.76059718 56.06054688 25.44140625 C58.81978791 26.65822396 61.57477051 27.883804 64.32543945 29.11987305 C66.38339692 30.04141579 68.4479577 30.94877313 70.52563477 31.82495117 C73.71175577 33.23800685 75.48764712 34.03040625 77.00952148 37.24975586 C77.10233398 38.13147461 77.19514648 39.01319336 77.29077148 39.92163086 C77.46092773 41.25967773 77.46092773 41.25967773 77.63452148 42.62475586 C77.68608398 43.30022461 77.73764648 43.97569336 77.79077148 44.67163086 C80.10077148 45.33163086 82.41077148 45.99163086 84.79077148 46.67163086 C84.66967773 48.46459961 84.66967773 48.46459961 83.79077148 50.67163086 C81.19311523 52.34741211 81.19311523 52.34741211 77.72827148 53.98413086 C77.1164502 54.27682861 76.50462891 54.56952637 75.87426758 54.87109375 C68.59519827 58.31632436 61.19548088 61.50780048 53.79077148 64.67163086 C54.57715734 70.17764375 54.57715734 70.17764375 57.77124023 74.37866211 C58.76768555 74.8053418 59.76413086 75.23202148 60.79077148 75.67163086 C62.41191386 76.42543255 64.03300189 77.1793511 65.65405273 77.93334961 C67.46903237 78.7451405 69.28548221 79.55365109 71.10327148 80.35913086 C72.03461914 80.77485352 72.9659668 81.19057617 73.92553711 81.61889648 C76.21269844 82.63932231 78.50112243 83.65680239 80.79077148 84.67163086 C80.79077148 85.33163086 80.79077148 85.99163086 80.79077148 86.67163086 C76.17077148 86.67163086 71.55077148 86.67163086 66.79077148 86.67163086 C66.46077148 88.65163086 66.13077148 90.63163086 65.79077148 92.67163086 C60.28281925 92.07044185 55.7331366 90.15513916 50.72827148 87.92163086 C49.9387207 87.58647461 49.14916992 87.25131836 48.33569336 86.90600586 C43.64205702 84.82868818 39.98849723 82.83553104 36.79077148 78.67163086 C35.97827148 75.35913086 35.97827148 75.35913086 35.79077148 72.67163086 C34.78916992 73.18854492 33.78756836 73.70545898 32.75561523 74.23803711 C31.41363123 74.90433686 30.07115677 75.56964945 28.72827148 76.23413086 C27.74310547 76.7475 27.74310547 76.7475 26.73803711 77.27124023 C22.03330847 79.56566455 19.02631259 80.02093302 13.79077148 78.67163086 C11.46645913 77.71215472 9.31729782 76.59400267 7.09936523 75.41381836 C3.88083366 74.37909586 2.02896457 74.70793153 -1.20922852 75.67163086 C-3.38184172 77.23753027 -5.25315903 78.74974791 -7.20922852 80.54663086 C-8.35571854 81.55795749 -9.50422217 82.56700516 -10.65454102 83.57397461 C-11.24138672 84.09072754 -11.82823242 84.60748047 -12.43286133 85.13989258 C-15.79265149 88.03699586 -19.30674772 90.73574823 -22.81640625 93.44750977 C-26.01642565 95.92726899 -29.15943228 98.4532962 -32.25219727 101.06616211 C-32.92331543 101.6256958 -33.59443359 102.18522949 -34.28588867 102.76171875 C-35.58357111 103.8464179 -36.87154824 104.94286374 -38.14819336 106.05224609 C-42.55796477 109.70814336 -42.55796477 109.70814336 -45.34301758 109.55200195 C-49.4992297 108.27540051 -53.38801025 106.51636744 -57.34594727 104.72631836 C-58.24667969 104.32401001 -59.14741211 103.92170166 -60.07543945 103.50720215 C-63.01802281 102.1917639 -65.95739007 100.86930192 -68.89672852 99.54663086 C-71.94358585 98.18148788 -74.99114704 96.81792528 -78.03877258 95.45449829 C-80.09493844 94.53450339 -82.15083534 93.61390713 -84.20646667 92.69271851 C-90.68436166 89.79186241 -97.17428763 86.92040352 -103.67797852 84.07788086 C-104.47331497 83.72976349 -105.26865143 83.38164612 -106.08808899 83.02297974 C-109.08903255 81.70979876 -112.09002103 80.39681227 -115.09481812 79.09246826 C-117.11781615 78.21403263 -119.13833323 77.33011129 -121.15844727 76.44506836 C-122.84973755 75.70909424 -122.84973755 75.70909424 -124.57519531 74.95825195 C-127.20922852 73.67163086 -127.20922852 73.67163086 -129.20922852 71.67163086 C-129.20922852 69.85913086 -129.20922852 69.85913086 -128.20922852 67.67163086 C-126.31094776 65.82593406 -124.3189826 64.28761271 -122.20922852 62.67163086 C-120.55922852 63.33163086 -118.90922852 63.99163086 -117.20922852 64.67163086 C-117.20922852 65.66163086 -117.20922852 66.65163086 -117.20922852 67.67163086 C-117.86922852 67.67163086 -118.52922852 67.67163086 -119.20922852 67.67163086 C-119.20922852 68.33163086 -119.20922852 68.99163086 -119.20922852 69.67163086 C-118.55519043 69.76210693 -117.90115234 69.85258301 -117.22729492 69.94580078 C-113.21137564 70.91160955 -109.66512041 72.56563243 -105.92016602 74.28491211 C-105.11159149 74.65107635 -104.30301697 75.0172406 -103.46994019 75.39450073 C-101.73720486 76.17982126 -100.00551481 76.96745143 -98.27478027 77.75717163 C-95.57285594 78.98931704 -92.86765889 80.21398175 -90.16137695 81.43652344 C-82.6599878 84.82700105 -75.1644433 88.22987768 -67.68240356 91.66285706 C-65.77201796 92.53773555 -63.85954605 93.40783873 -61.94604492 94.27587891 C-59.67039599 95.3091784 -57.39899473 96.35189914 -55.13256836 97.40527344 C-54.13177246 97.85797607 -53.13097656 98.31067871 -52.09985352 98.77709961 C-51.24423828 99.17050537 -50.38862305 99.56391113 -49.50708008 99.96923828 C-46.88070043 100.77205322 -45.74033929 100.66428134 -43.20922852 99.67163086 C-41.01647458 98.26572266 -38.9290678 96.83575583 -36.83422852 95.29663086 C-36.22063477 94.85109863 -35.60704102 94.40556641 -34.97485352 93.9465332 C-25.11015334 86.73171295 -15.63780309 79.11298506 -6.41088867 71.10205078 C0.14739309 65.43925877 6.96101655 60.00334316 14.09545898 55.08178711 C16.07974471 53.68325415 16.07974471 53.68325415 16.79077148 50.67163086 C10.75823422 51.90384085 7.79367396 54.00411072 3.66577148 58.48413086 C3.1669043 59.00555664 2.66803711 59.52698242 2.15405273 60.06420898 C1.16966942 61.09357065 0.1900234 62.12748715 -0.78442383 63.16625977 C-2.88081187 65.38118929 -5.04295463 67.52519465 -7.20922852 69.67163086 C-7.53922852 68.68163086 -7.86922852 67.69163086 -8.20922852 66.67163086 C-8.9246582 67.34967773 -9.64008789 68.02772461 -10.37719727 68.72631836 C-17.64299422 75.53969802 -25.15426135 81.80301192 -33.20922852 87.67163086 C-34.18118164 88.44635742 -35.15313477 89.22108398 -36.15454102 90.01928711 C-40.15871902 92.18522994 -41.78436664 91.63888994 -46.20922852 90.67163086 C-49.30940761 89.53522504 -52.28210472 88.16783496 -55.27172852 86.76928711 C-56.13275681 86.37545837 -56.9937851 85.98162964 -57.88090515 85.5758667 C-59.71481407 84.73598461 -61.5469025 83.89211774 -63.37728882 83.04458618 C-66.22313993 81.72769347 -69.0742167 80.42284274 -71.92724609 79.12158203 C-75.66675926 77.41555568 -79.40493433 75.70668036 -83.14135742 73.99389648 C-89.3826988 71.13349343 -95.62576917 68.27923893 -101.89672852 65.48413086 C-102.77135742 65.08137939 -103.64598633 64.67862793 -104.54711914 64.26367188 C-109.37323709 62.12818274 -112.9263918 61.24023455 -118.20922852 61.67163086 C-118.53922852 59.69163086 -118.86922852 57.71163086 -119.20922852 55.67163086 C-118.49379883 55.22174805 -117.77836914 54.77186523 -117.04125977 54.30834961 C-108.84236075 49.01565801 -101.51114754 43.12116816 -94.20922852 36.67163086 C-93.45198486 36.0091333 -93.45198486 36.0091333 -92.67944336 35.33325195 C-87.41746351 30.71974946 -82.4784391 26.04163664 -77.96704102 20.69116211 C-73.82875438 15.93673057 -69.46432812 11.1750306 -64.20922852 7.67163086 C-58.36758434 7.79333178 -53.99639131 10.0456238 -48.85766602 12.71069336 C-43.68212487 14.58854457 -39.30162939 11.96632055 -34.51782227 9.80053711 C-33.89069839 9.51814682 -33.26357452 9.23575653 -32.6174469 8.94480896 C-30.62497914 8.0460876 -28.63589265 7.14013692 -26.64672852 6.23413086 C-25.30644046 5.62885515 -23.96594754 5.02403287 -22.62524414 4.41967773 C-16.24884274 1.65307831 -16.24884274 1.65307831 -10.11181641 -1.57861328 C-6.4313415 -3.02898393 -3.50049951 -1.44893251 0 0 Z " fill="#60A5F2" transform="translate(157.209228515625,50.328369140625)"/>
<path d="M0 0 C6.93 0 13.86 0 21 0 C22.32773437 2.66707031 23.65546875 5.33414063 25.0234375 8.08203125 C26.34698829 10.73698738 27.67126475 13.3915804 28.99560547 16.04614258 C29.89805245 17.85598802 30.79977455 19.66619515 31.70068359 21.47680664 C36.87268842 31.8699359 42.12534349 42.20954961 47.56091309 52.46751404 C51.26300499 59.46366309 54.7788015 66.54326032 58.2265625 73.66796875 C58.66484375 74.55871094 59.103125 75.44945313 59.5546875 76.3671875 C59.93093262 77.14175293 60.30717773 77.91631836 60.69482422 78.71435547 C62.21605997 81.37836765 64.03558657 83.64924673 66 86 C76.88145356 65.05817237 76.88145356 65.05817237 87.49926758 43.98193359 C90.66675823 37.61529717 93.96708185 31.32474122 97.29956055 25.04321289 C101.67859563 16.76667113 105.83937766 8.3883515 110 0 C116.93 0 123.86 0 131 0 C131 37.62 131 75.24 131 114 C125.39 114 119.78 114 114 114 C113.67 86.94 113.34 59.88 113 32 C109.37 39.26 105.74 46.52 102 54 C97.0078125 63.51953125 97.0078125 63.51953125 94.54003906 68.17822266 C89.89422497 76.96741097 85.39809869 85.83476616 80.875 94.6875 C79.9089557 96.57622381 78.94281029 98.46489591 77.9765625 100.35351562 C75.64988249 104.90175196 73.32454819 109.45067377 71 114 C67.37 114 63.74 114 60 114 C59.59797363 113.19071045 59.19594727 112.3814209 58.78173828 111.54760742 C48.82872767 91.50634117 48.82872767 91.50634117 38.50512695 71.65454102 C35.10655961 65.25552624 31.85982279 58.78561825 28.66088867 52.28466797 C25.26635893 45.42009381 21.63956105 38.7591848 18 32 C17.67 59.06 17.34 86.12 17 114 C11.39 114 5.78 114 0 114 C0 76.38 0 38.76 0 0 Z " fill="#FBFCFC" transform="translate(288,46)"/>
<path d="M0 0 C2.95501565 1.17867847 5.83815821 2.49963389 8.7265625 3.83203125 C10.00642029 4.41457169 10.00642029 4.41457169 11.31213379 5.00888062 C14.08523565 6.27210654 16.855063 7.54235156 19.625 8.8125 C22.47627441 10.11298737 25.32841675 11.41155717 28.18063354 12.7099762 C30.08057604 13.57498711 31.98025489 14.44057732 33.87966919 15.30674744 C41.94066328 18.98098317 50.02520385 22.59974235 58.125 26.1875 C59.2485791 26.68548096 60.3721582 27.18346191 61.52978516 27.6965332 C64.01929697 28.79896276 66.50928708 29.90028749 69 31 C67.90055651 34.29833047 67.24345342 34.83739348 64.625 36.9375 C61.03399244 39.97801442 57.83015823 43.25685736 54.6875 46.75 C46.40143623 55.90277688 38.00104866 64.53866167 27.98828125 71.80859375 C25.07520951 73.87226517 25.07520951 73.87226517 22.85546875 75.91015625 C20.81813915 77.5872002 19.56242482 78.36043701 17 79 C14.27978516 78.28955078 14.27978516 78.28955078 11.1640625 77.0078125 C10.0080957 76.53496826 8.85212891 76.06212402 7.66113281 75.57495117 C1.53031776 72.93758868 -4.55801359 70.21745236 -10.625 67.4375 C-13.34032806 66.19872183 -16.05675292 64.96236253 -18.7734375 63.7265625 C-19.79570435 63.26099693 -19.79570435 63.26099693 -20.83862305 62.786026 C-25.51442533 60.661155 -30.20770424 58.57965201 -34.9140625 56.5234375 C-35.53886505 56.24961746 -36.1636676 55.97579742 -36.80740356 55.69367981 C-39.77149233 54.39472312 -42.73796765 53.10198862 -45.70947266 51.82006836 C-47.28414307 51.12989624 -47.28414307 51.12989624 -48.890625 50.42578125 C-49.80875977 50.02786377 -50.72689453 49.62994629 -51.67285156 49.2199707 C-53.91784019 48.04307098 -55.3410667 46.89460062 -57 45 C-55.96101563 44.23816406 -54.92203125 43.47632813 -53.8515625 42.69140625 C-39.36642301 32.00028383 -25.70276728 20.24100279 -14.0625 6.4375 C-9.92784307 1.6188381 -6.6304279 -1.91885871 0 0 Z " fill="#1B2843" transform="translate(99,61)"/>
<path d="M0 0 C9.13867512 5.56997351 17.2384506 14.05503594 20.12524414 24.5324707 C22.12630429 34.04181164 21.88967973 45.2885425 16.55078125 53.5546875 C16.12667969 54.30878906 15.70257812 55.06289062 15.265625 55.83984375 C8.93480943 66.40295942 -0.18191046 71.21914616 -11.8671875 74.1640625 C-22.73710493 75.80852807 -33.38226653 73.11188099 -42.5390625 67.20703125 C-49.84605956 61.46696135 -55.1790978 52.50691586 -57.44921875 43.5546875 C-58.7862773 31.62632249 -56.7679609 20.40030229 -49.38671875 10.8046875 C-36.90196279 -3.69373877 -17.54549596 -8.59074076 0 0 Z " fill="#FAFBFB" transform="translate(731.44921875,87.4453125)"/>
<path d="M0 0 C1.18190918 0.01305176 1.18190918 0.01305176 2.38769531 0.02636719 C13.52282981 0.30623666 21.45586686 3.36200804 29.25 11.5 C37.86616009 21.46706856 38.125 31.33963525 38.125 44.375 C18.655 44.375 -0.815 44.375 -20.875 44.375 C-18.50404873 54.20454453 -18.50404873 54.20454453 -11.7109375 60.921875 C-5.55767244 64.39895811 0.13042416 65.63043669 7.125 64.375 C12.761834 62.33546177 17.66195082 59.39174426 22.125 55.375 C22.59550781 55.85710937 23.06601562 56.33921875 23.55078125 56.8359375 C24.17339844 57.46757812 24.79601562 58.09921875 25.4375 58.75 C26.05238281 59.37648437 26.66726563 60.00296875 27.30078125 60.6484375 C29.21312528 62.55586607 29.21312528 62.55586607 32.125 64.375 C29.54549506 70.2710113 24.91863135 73.20138683 19.09375 75.6484375 C11.97562128 78.038095 5.59976313 79.07235399 -1.875 78.375 C-2.77992188 78.2925 -3.68484375 78.21 -4.6171875 78.125 C-15.10126263 76.69940338 -23.48008076 71.96747408 -30.21875 63.8203125 C-32.85335631 59.93053997 -34.45157913 55.83022689 -35.875 51.375 C-36.37 49.89 -36.37 49.89 -36.875 48.375 C-38.05937954 35.59350276 -37.29115216 24.26066176 -29.6875 13.5625 C-21.98388747 4.36096282 -11.87637073 -0.21889582 0 0 Z " fill="#FAFAFB" transform="translate(474.875,83.625)"/>
<path d="M0 0 C5.42198552 3.44479531 9.00044552 7.82734426 11 14 C11.52621841 18.49785697 11.46670768 22.94550488 11.390625 27.46875 C11.38496521 28.74480103 11.37930542 30.02085205 11.37347412 31.33557129 C11.35495798 34.70282658 11.31912089 38.06896591 11.2746582 41.43591309 C11.23349431 44.88165728 11.21541842 48.32751748 11.1953125 51.7734375 C11.15133092 58.5159691 11.08234515 65.25783221 11 72 C5.72 72 0.44 72 -5 72 C-5.33 70.02 -5.66 68.04 -6 66 C-6.70125 66.598125 -7.4025 67.19625 -8.125 67.8125 C-14.14898436 72.39596636 -18.85450244 73.55766897 -26.25 73.5 C-27.09393311 73.49427979 -27.93786621 73.48855957 -28.80737305 73.48266602 C-36.52894093 73.26158189 -42.10166661 71.60288076 -47.85546875 66.28515625 C-53.74592054 59.89100787 -54.46041698 53.99597332 -54.30859375 45.44921875 C-53.73623854 39.05188143 -51.40449711 35.07659492 -46.8125 30.6875 C-38.32465233 24.27313563 -29.21965423 24.61486372 -18.9375 24.8125 C-17.58139514 24.82758044 -16.22527398 24.84126288 -14.86914062 24.85351562 C-11.57900398 24.88864164 -8.28971817 24.9378336 -5 25 C-5.11761022 23.3859594 -5.2475748 21.77281554 -5.3828125 20.16015625 C-5.48940186 18.81256226 -5.48940186 18.81256226 -5.59814453 17.43774414 C-5.84291935 14.81015775 -5.84291935 14.81015775 -7.875 12.4375 C-13.21744207 8.82349507 -19.81241379 9.33443222 -26 10 C-29.07675333 11.24902682 -31.44934191 12.89910992 -34 15 C-35.32 15.99 -36.64 16.98 -38 18 C-41.3 15.03 -44.6 12.06 -48 9 C-37.12473205 -5.61364131 -15.82797794 -8.78725672 0 0 Z " fill="#FBFBFB" transform="translate(875,88)"/>
<path d="M0 0 C0.70108887 0.00942627 1.40217773 0.01885254 2.12451172 0.02856445 C10.82810587 0.28135341 16.96188679 2.21188679 23.125 8.375 C29.92610102 16.73063839 30.56593185 26.35047596 30.41796875 36.7265625 C30.41372391 37.86660736 30.40947906 39.00665222 30.40510559 40.1812439 C30.38844334 43.78774613 30.35081395 47.39366943 30.3125 51 C30.29743709 53.45962729 30.28375151 55.91926343 30.27148438 58.37890625 C30.23858057 64.37782392 30.18688465 70.37631414 30.125 76.375 C24.845 76.375 19.565 76.375 14.125 76.375 C14.11098145 74.06713501 14.11098145 74.06713501 14.09667969 71.71264648 C14.05672358 65.98904772 13.99094783 60.26598325 13.91748047 54.54272461 C13.88930368 52.06851072 13.86807285 49.59420737 13.85400391 47.11987305 C13.83252978 43.55731513 13.78585325 39.99582917 13.734375 36.43359375 C13.73314636 35.33228622 13.73191772 34.2309787 13.73065186 33.09629822 C13.60877619 26.66492953 13.00919641 22.58202347 9.125 17.375 C2.97633408 13.19903106 -3.712366 13.60939779 -10.875 14.375 C-16.14166426 16.82672302 -19.62868728 20.51673708 -21.95849609 25.85986328 C-23.21357926 30.67357864 -23.23164415 35.28583736 -23.2890625 40.2421875 C-23.30842865 41.27691193 -23.3277948 42.31163635 -23.3477478 43.37771606 C-23.40731842 46.66839467 -23.45383905 49.95910868 -23.5 53.25 C-23.53820048 55.48699405 -23.57725341 57.72397372 -23.6171875 59.9609375 C-23.71300156 65.43217425 -23.79711585 70.90347983 -23.875 76.375 C-29.155 76.375 -34.435 76.375 -39.875 76.375 C-39.875 51.625 -39.875 26.875 -39.875 1.375 C-34.595 1.375 -29.315 1.375 -23.875 1.375 C-23.545 4.345 -23.215 7.315 -22.875 10.375 C-22.37871094 9.90449219 -21.88242187 9.43398437 -21.37109375 8.94921875 C-20.69175781 8.32660156 -20.01242187 7.70398438 -19.3125 7.0625 C-18.65121094 6.44761719 -17.98992188 5.83273438 -17.30859375 5.19921875 C-11.89149173 1.13856603 -6.66954673 -0.13898236 0 0 Z " fill="#FAFAFB" transform="translate(567.875,83.625)"/>
<path d="M0 0 C1.00290825 0.46591301 1.00290825 0.46591301 2.02607727 0.9412384 C4.21483133 1.96012734 6.396276 2.99376281 8.578125 4.02734375 C11.69437382 5.48399073 14.81412016 6.9330871 17.93359375 8.3828125 C19.13688576 8.94400787 19.13688576 8.94400787 20.36448669 9.51654053 C26.23671303 12.24861461 32.14028419 14.90268295 38.06640625 17.515625 C38.89431671 17.8808577 39.72222717 18.24609039 40.57522583 18.62239075 C43.81120708 20.04810693 47.04814724 21.47154658 50.28820801 22.88796997 C52.5232755 23.86548376 54.75591557 24.84836674 56.98828125 25.83203125 C57.65434891 26.12092728 58.32041656 26.4098233 59.00666809 26.70747375 C61.71108092 27.90271316 63.71731295 28.8540317 65.828125 30.96484375 C60.81621118 33.27844987 55.80313966 35.58952355 50.7890625 37.8984375 C49.08986284 38.68130139 47.39096028 39.4648105 45.69238281 40.24902344 C35.46454335 44.9704936 25.2144323 49.60118912 14.828125 53.96484375 C14.69791667 50.97005208 14.56770833 47.97526042 14.4375 44.98046875 C13.68218332 41.24261956 12.72820917 40.40254056 9.828125 37.96484375 C7.3884316 36.66835654 5.00416818 35.50275347 2.484375 34.390625 C1.76636215 34.06512161 1.0483493 33.73961823 0.30857849 33.4042511 C-2.01453283 32.35349672 -4.34309245 31.31545953 -6.671875 30.27734375 C-8.26398167 29.55929771 -9.85569668 28.84038261 -11.44702148 28.12060547 C-18.24197112 25.05172486 -25.05187429 22.01652221 -31.86328125 18.984375 C-32.79269531 18.56953857 -33.72210938 18.15470215 -34.6796875 17.72729492 C-36.3375262 16.98915745 -37.9975702 16.25594585 -39.66015625 15.52856445 C-44.95286879 13.18384996 -44.95286879 13.18384996 -47.171875 10.96484375 C-43.52705551 9.21272663 -39.88083543 7.4635429 -36.234375 5.71484375 C-35.21279297 5.22371094 -34.19121094 4.73257813 -33.13867188 4.2265625 C-31.1090507 3.25390059 -29.07601221 2.28833601 -27.03955078 1.33007812 C-25.24273129 0.47465376 -23.45739659 -0.40582444 -21.69091797 -1.32226562 C-20.94084473 -1.69673828 -20.19077148 -2.07121094 -19.41796875 -2.45703125 C-18.78431396 -2.78799805 -18.15065918 -3.11896484 -17.49780273 -3.45996094 C-11.30575787 -4.99123602 -5.52458318 -2.66281836 0 0 Z " fill="#1E2B46" transform="translate(163.171875,55.03515625)"/>
<path d="M0 0 C5.28 0 10.56 0 16 0 C16 7.92 16 15.84 16 24 C22.6 24 29.2 24 36 24 C36 28.29 36 32.58 36 37 C29.4 37 22.8 37 16 37 C16.07427837 42.2660804 16.15735532 47.53054817 16.26245117 52.79589844 C16.29555035 54.58422271 16.32362826 56.37264768 16.34643555 58.16113281 C16.38025956 60.74327199 16.43258623 63.32450076 16.48828125 65.90625 C16.49467117 66.69616333 16.5010611 67.48607666 16.50764465 68.29992676 C16.6507536 73.79595101 17.70661534 77.98234615 20 83 C23.3416999 86.037909 25.18093962 86.9305881 29.6875 87.3125 C32.99863871 87.1258577 32.99863871 87.1258577 36 86 C36 90.29 36 94.58 36 99 C30.03760765 101.98119618 23.93678629 101.9569419 17.4609375 100.3828125 C10.26148211 97.58714769 5.96427461 92.33926683 2.125 85.8125 C-0.17425656 80.06435859 -0.13382206 74.64631129 -0.09765625 68.54296875 C-0.0962413 67.64000565 -0.09482635 66.73704254 -0.09336853 65.80671692 C-0.08778823 62.93361037 -0.07523934 60.06058284 -0.0625 57.1875 C-0.05748245 55.23502717 -0.05291999 53.28255311 -0.04882812 51.33007812 C-0.03782525 46.55335515 -0.02057418 41.77669096 0 37 C-2.97 37 -5.94 37 -9 37 C-9 32.71 -9 28.42 -9 24 C-6.03 24 -3.06 24 0 24 C0 16.08 0 8.16 0 0 Z " fill="#F8F9FA" transform="translate(623,61)"/>
<path d="M0 0 C5.88779268 3.45400782 10.71119374 8.94353373 12.6875 15.5 C12.90281267 18.15365875 13.02136276 20.66289817 13 23.3125 C12.99262817 24.38153564 12.99262817 24.38153564 12.98510742 25.47216797 C12.82173362 32.79298976 11.41894373 38.54142377 6.3203125 44.11328125 C0.70303734 48.8839336 -5.55990446 51.36019362 -12.93359375 50.91015625 C-20.95488916 49.52717428 -25.52666515 44.79919344 -30.3125 38.5 C-34.5658667 32.11994995 -34.01556861 23.91050481 -33.3125 16.5 C-31.27126034 9.64399773 -27.39052901 4.31164531 -21.3125 0.5 C-14.7949733 -2.63446558 -6.67610979 -2.94687659 0 0 Z " fill="#303B54" transform="translate(723.3125,98.5)"/>
<path d="M0 0 C1.81564453 0.00580078 1.81564453 0.00580078 3.66796875 0.01171875 C6.8125 0.3125 6.8125 0.3125 9.8125 2.3125 C9.2123116 6.51381882 8.19326751 10.3049065 6.8125 14.3125 C5.50925781 14.24289063 5.50925781 14.24289063 4.1796875 14.171875 C-2.98989349 13.89270519 -2.98989349 13.89270519 -9.75 15.9375 C-16.85806602 22.86330792 -18.35108141 30.38083334 -18.56655884 39.92736816 C-18.58388565 41.30910217 -18.58388565 41.30910217 -18.6015625 42.71875 C-18.62092865 43.6840564 -18.6402948 44.64936279 -18.6602478 45.6439209 C-18.71960018 48.70002657 -18.76625038 51.75617082 -18.8125 54.8125 C-18.85072064 56.89584895 -18.8897747 58.97918278 -18.9296875 61.0625 C-19.02526489 66.1457093 -19.10945813 71.22899247 -19.1875 76.3125 C-24.4675 76.3125 -29.7475 76.3125 -35.1875 76.3125 C-35.1875 51.5625 -35.1875 26.8125 -35.1875 1.3125 C-29.9075 1.3125 -24.6275 1.3125 -19.1875 1.3125 C-18.8575 3.6225 -18.5275 5.9325 -18.1875 8.3125 C-17.48625 7.549375 -16.785 6.78625 -16.0625 6 C-11.01687384 1.28343642 -6.8718459 -0.09574919 0 0 Z " fill="#FBFBFB" transform="translate(804.1875,83.6875)"/>
<path d="M0 0 C1.22570063 0.56357772 2.44878002 1.13287889 3.66967773 1.70678711 C4.34225616 2.01730515 5.01483459 2.32782318 5.70779419 2.64775085 C7.16368475 3.32034247 8.61850365 3.99525766 10.07235718 4.67224121 C13.98107986 6.49196418 17.89775383 8.29440576 21.81420898 10.09741211 C22.62691757 10.47195526 23.43962616 10.84649841 24.27696228 11.23239136 C34.82114903 16.0813794 45.44090848 20.76059718 56.06054688 25.44140625 C58.82023606 26.65789257 61.57414382 27.88605399 64.32348633 29.12573242 C66.38133488 30.04322975 68.45114272 30.93568563 70.54321289 31.7722168 C72.74780273 32.70288086 72.74780273 32.70288086 75.79077148 34.67163086 C76.79077148 37.90600586 76.79077148 37.90600586 76.79077148 41.42163086 C76.82170898 43.17733398 76.82170898 43.17733398 76.85327148 44.96850586 C76.83264648 45.86053711 76.81202148 46.75256836 76.79077148 47.67163086 C73.9325214 44.44056555 73.38587041 41.88932228 72.79077148 37.67163086 C71.77354004 38.12489746 70.75630859 38.57816406 69.70825195 39.04516602 C65.86559361 40.75709405 62.02235435 42.46771466 58.17895508 44.17797852 C56.52841038 44.91265851 54.87801495 45.64767398 53.2277832 46.38305664 C43.1140903 50.88964442 32.98338038 55.3460478 22.79077148 59.67163086 C22.79077148 58.68163086 22.79077148 57.69163086 22.79077148 56.67163086 C38.44627381 49.64643729 54.10240868 42.62323472 69.79077148 35.67163086 C66.2842868 32.73105197 62.36490831 30.97909953 58.21264648 29.15209961 C57.46094681 28.81647507 56.70924713 28.48085052 55.93476868 28.13505554 C53.4725298 27.03752356 51.00697376 25.94772506 48.54077148 24.85913086 C46.83424594 24.10357867 45.12778498 23.34788061 43.42138672 22.59204102 C40.80511507 21.43361922 38.18851002 20.27598503 35.57078552 19.12084961 C30.58881594 16.92050163 25.62013585 14.69408985 20.66549683 12.43287659 C17.75282738 11.10526799 14.83431164 9.79086684 11.91467285 8.47866821 C10.54961592 7.86147446 9.18716783 7.23847513 7.82751465 6.60946655 C5.93793278 5.73656125 4.03985716 4.88553726 2.13842773 4.03881836 C1.0763208 3.55525879 0.01421387 3.07169922 -1.08007812 2.57348633 C-7.35235924 0.76574611 -12.32644742 2.91160112 -18.01782227 5.61303711 C-18.62940689 5.90017075 -19.24099152 6.18730438 -19.87110901 6.48313904 C-21.80057271 7.39143535 -23.72360902 8.31249037 -25.64672852 9.23413086 C-26.96338041 9.85673369 -28.28043449 10.47848674 -29.59790039 11.09936523 C-32.80638178 12.61366453 -36.00923616 14.1394594 -39.20922852 15.67163086 C-35.42709293 18.91346136 -31.07498759 20.67135032 -26.56079102 22.65600586 C-25.28732315 23.22402924 -25.28732315 23.22402924 -23.98812866 23.80352783 C-21.27226037 25.0143461 -18.55352061 26.2185238 -15.83422852 27.42163086 C4.58620477 36.4735689 4.58620477 36.4735689 12.95483398 40.56225586 C14.04489746 41.09367187 15.13496094 41.62508789 16.25805664 42.17260742 C18.79077148 43.67163086 18.79077148 43.67163086 20.79077148 46.67163086 C20.91577148 49.35913086 20.91577148 49.35913086 20.79077148 51.67163086 C19.47077148 52.33163086 18.15077148 52.99163086 16.79077148 53.67163086 C16.79077148 52.68163086 16.79077148 51.69163086 16.79077148 50.67163086 C10.75823422 51.90384085 7.79367396 54.00411072 3.66577148 58.48413086 C3.1669043 59.00555664 2.66803711 59.52698242 2.15405273 60.06420898 C1.16966942 61.09357065 0.1900234 62.12748715 -0.78442383 63.16625977 C-2.88081187 65.38118929 -5.04295463 67.52519465 -7.20922852 69.67163086 C-7.53922852 68.68163086 -7.86922852 67.69163086 -8.20922852 66.67163086 C-8.9246582 67.34967773 -9.64008789 68.02772461 -10.37719727 68.72631836 C-17.64299422 75.53969802 -25.15426135 81.80301192 -33.20922852 87.67163086 C-34.18118164 88.44635742 -35.15313477 89.22108398 -36.15454102 90.01928711 C-40.15871902 92.18522994 -41.78436664 91.63888994 -46.20922852 90.67163086 C-49.30940761 89.53522504 -52.28210472 88.16783496 -55.27172852 86.76928711 C-56.13275681 86.37545837 -56.9937851 85.98162964 -57.88090515 85.5758667 C-59.71481407 84.73598461 -61.5469025 83.89211774 -63.37728882 83.04458618 C-66.22313993 81.72769347 -69.0742167 80.42284274 -71.92724609 79.12158203 C-75.66675926 77.41555568 -79.40493433 75.70668036 -83.14135742 73.99389648 C-89.3826988 71.13349343 -95.62576917 68.27923893 -101.89672852 65.48413086 C-102.77135742 65.08137939 -103.64598633 64.67862793 -104.54711914 64.26367188 C-109.37323709 62.12818274 -112.9263918 61.24023455 -118.20922852 61.67163086 C-118.53922852 59.69163086 -118.86922852 57.71163086 -119.20922852 55.67163086 C-118.49379883 55.22174805 -117.77836914 54.77186523 -117.04125977 54.30834961 C-108.84236075 49.01565801 -101.51114754 43.12116816 -94.20922852 36.67163086 C-93.45198486 36.0091333 -93.45198486 36.0091333 -92.67944336 35.33325195 C-87.41746351 30.71974946 -82.4784391 26.04163664 -77.96704102 20.69116211 C-73.82875438 15.93673057 -69.46432812 11.1750306 -64.20922852 7.67163086 C-58.36758434 7.79333178 -53.99639131 10.0456238 -48.85766602 12.71069336 C-43.68212487 14.58854457 -39.30162939 11.96632055 -34.51782227 9.80053711 C-33.89069839 9.51814682 -33.26357452 9.23575653 -32.6174469 8.94480896 C-30.62497914 8.0460876 -28.63589265 7.14013692 -26.64672852 6.23413086 C-25.30644046 5.62885515 -23.96594754 5.02403287 -22.62524414 4.41967773 C-16.24884274 1.65307831 -16.24884274 1.65307831 -10.11181641 -1.57861328 C-6.4313415 -3.02898393 -3.50049951 -1.44893251 0 0 Z M-72.99291992 17.39575195 C-74.70193093 19.18954028 -76.36731095 21.01492081 -78.02172852 22.85913086 C-79.248431 24.19353344 -80.47630598 25.52685905 -81.70532227 26.85913086 C-82.30199707 27.50881836 -82.89867187 28.15850586 -83.51342773 28.82788086 C-91.8281365 37.86800188 -100.58767277 45.28006904 -110.57446289 52.40405273 C-112.26333202 53.71358209 -113.73113957 55.13073996 -115.20922852 56.67163086 C-102.87159299 63.02844859 -90.29432503 68.72852406 -77.58422852 74.29663086 C-74.7761577 75.53280301 -71.96854617 76.77001415 -69.16094971 78.00726318 C-66.48213917 79.18348203 -63.79852602 80.3481897 -61.11450195 81.51245117 C-58.0362516 82.8526692 -54.99171956 84.23908213 -51.96801758 85.69799805 C-51.33159332 85.99636566 -50.69516907 86.29473328 -50.03945923 86.60214233 C-48.38752198 87.37954609 -46.74629883 88.17960906 -45.10620117 88.98168945 C-42.11913999 89.98165167 -42.11913999 89.98165167 -39.02416992 88.44604492 C-35.87546197 86.46123925 -32.88352835 84.34400979 -29.95922852 82.04663086 C-29.39276611 81.60496582 -28.82630371 81.16330078 -28.24267578 80.70825195 C-16.40744707 71.38615409 -5.41252215 60.78894099 4.32202148 49.28881836 C6.26783733 47.14635091 8.52252069 45.45873754 10.79077148 43.67163086 C10.79077148 43.01163086 10.79077148 42.35163086 10.79077148 41.67163086 C-0.4220504 36.59292481 -11.63678852 31.51849062 -22.85435486 26.45027161 C-27.97898569 24.13425284 -33.10130722 21.81330779 -38.21989441 19.48396301 C-40.90975644 18.26076941 -43.60153843 17.04184895 -46.29385376 15.82406616 C-48.11854799 14.9969055 -49.94064517 14.16402353 -51.76269531 13.33105469 C-52.84719971 12.84145264 -53.9317041 12.35185059 -55.04907227 11.84741211 C-55.98098389 11.42371338 -56.91289551 11.00001465 -57.87304688 10.56347656 C-64.27469597 8.11962411 -68.59800794 13.14761776 -72.99291992 17.39575195 Z " fill="#5A9AE3" transform="translate(157.209228515625,50.328369140625)"/>
<path d="M0 0 C0.680625 0.12375 1.36125 0.2475 2.0625 0.375 C1.85809141 3.74774176 0.86326142 4.55319225 -1.7109375 6.85546875 C-2.90415671 7.76744596 -4.10519876 8.66924851 -5.3125 9.5625 C-6.59966447 10.54334486 -7.88611523 11.52512699 -9.171875 12.5078125 C-9.81189453 12.99282227 -10.45191406 13.47783203 -11.11132812 13.97753906 C-13.63885808 15.91170771 -16.10354673 17.91713197 -18.5625 19.9375 C-19.44808594 20.66453125 -20.33367187 21.3915625 -21.24609375 22.140625 C-23.07936565 23.66258657 -24.90460754 25.1942608 -26.72265625 26.734375 C-34.28442399 33.125748 -42.06892834 39.16636056 -50.07275391 44.99462891 C-51.33466187 45.9287514 -52.57646017 46.89056088 -53.79833984 47.87646484 C-58.31456062 51.41646929 -58.31456062 51.41646929 -61.13427734 51.22875977 C-64.95434919 50.06530468 -68.49785048 48.46596958 -72.12109375 46.796875 C-72.92164688 46.4334903 -73.72220001 46.07010559 -74.54701233 45.69570923 C-76.26621728 44.91493448 -77.98440281 44.13191187 -79.70166016 43.34686279 C-84.20100507 41.29041563 -88.70797688 39.25083471 -93.21484375 37.2109375 C-94.11894989 36.80134796 -95.02305603 36.39175842 -95.95455933 35.96975708 C-104.41245491 32.14510667 -112.91346117 28.4245044 -121.4375 24.75 C-122.40814896 24.33131653 -122.40814896 24.33131653 -123.39840698 23.9041748 C-126.90969338 22.39037135 -130.42266619 20.88054748 -133.9375 19.375 C-133.9375 18.715 -133.9375 18.055 -133.9375 17.375 C-133.2775 17.375 -132.6175 17.375 -131.9375 17.375 C-131.9375 16.385 -131.9375 15.395 -131.9375 14.375 C-133.2575 13.715 -134.5775 13.055 -135.9375 12.375 C-135.6075 11.715 -135.2775 11.055 -134.9375 10.375 C-127.53548924 9.89531766 -122.68459894 11.27337398 -116.0234375 14.3984375 C-115.09842438 14.81596786 -114.17341125 15.23349823 -113.22036743 15.66368103 C-111.25534243 16.55314559 -109.29375706 17.45024309 -107.33544922 18.35440063 C-104.29685033 19.75722496 -101.24964049 21.13945122 -98.19921875 22.51635742 C-93.29615201 24.73233394 -88.40001253 26.96304943 -83.50671387 29.20050049 C-77.99435153 31.7204413 -72.47358215 34.22001598 -66.9375 36.6875 C-65.61758057 37.29827393 -65.61758057 37.29827393 -64.27099609 37.92138672 C-61.11154138 39.32823582 -58.74266229 40.3808771 -55.26171875 40.35546875 C-46.60312633 36.70285245 -39.0321196 29.79888817 -32.23828125 23.4609375 C-28.98608801 20.51242954 -25.5100546 17.91969671 -21.9375 15.375 C-21.4425 16.86 -21.4425 16.86 -20.9375 18.375 C-20.22464844 17.57835938 -19.51179688 16.78171875 -18.77734375 15.9609375 C-4.97218332 0.63474681 -4.97218332 0.63474681 0 0 Z " fill="#5998E1" transform="translate(171.9375,100.625)"/>
<path d="M0 0 C1.74023438 0.00966797 1.74023438 0.00966797 3.515625 0.01953125 C4.7221875 0.03628906 5.92875 0.05304688 7.171875 0.0703125 C9.00492188 0.08384766 9.00492188 0.08384766 10.875 0.09765625 C13.89082282 0.12121737 16.90624992 0.15411544 19.921875 0.1953125 C20.781669 14.14308188 20.781669 14.14308188 17.921875 17.8828125 C10.91033621 23.28754032 3.69005555 24.30520877 -5.078125 23.1953125 C-9.54216031 21.08076946 -12.1612514 18.77451055 -14.078125 14.1953125 C-14.59946772 10.02457073 -14.56423449 7.9765599 -12.328125 4.3828125 C-8.36372568 0.52853538 -5.49083274 -0.05383169 0 0 Z " fill="#343F57" transform="translate(850.078125,125.8046875)"/>
<path d="M0 0 C2.04176835 1.20791639 3.69181745 2.46667181 5.421875 4.0859375 C6.20691406 4.78976563 6.20691406 4.78976563 7.0078125 5.5078125 C10.98207493 9.59186119 10.421875 10.86750349 10.421875 17.0859375 C-3.108125 17.0859375 -16.638125 17.0859375 -30.578125 17.0859375 C-30.578125 9.16385958 -30.578125 9.16385958 -27.453125 5.8359375 C-26.87304688 5.19140625 -26.29296875 4.546875 -25.6953125 3.8828125 C-18.63651576 -2.1080482 -8.67809653 -3.07677968 0 0 Z " fill="#29354E" transform="translate(485.578125,97.9140625)"/>
<path d="M0 0 C0.99 3.3 1.98 6.6 3 10 C-0.90783594 11.87321073 -4.82751407 13.72018825 -8.75 15.5625 C-9.86117187 16.09552734 -10.97234375 16.62855469 -12.1171875 17.17773438 C-13.18710938 17.67724609 -14.25703125 18.17675781 -15.359375 18.69140625 C-16.34389648 19.15748291 -17.32841797 19.62355957 -18.34277344 20.10375977 C-21.13844576 21.04669555 -22.29671201 21.05719873 -25 20 C-25 19.34 -25 18.68 -25 18 C-22.69 17.34 -20.38 16.68 -18 16 C-18 15.34 -18 14.68 -18 14 C-19.08099976 14.47626831 -19.08099976 14.47626831 -20.18383789 14.9621582 C-23.4765673 16.41263103 -26.76953154 17.86256997 -30.0625 19.3125 C-31.19623047 19.81201172 -32.32996094 20.31152344 -33.49804688 20.82617188 C-34.60341797 21.31279297 -35.70878906 21.79941406 -36.84765625 22.30078125 C-37.91516113 22.77209473 -38.98266602 23.2434082 -40.08251953 23.72900391 C-42.45867505 24.76417258 -44.84505269 25.7554485 -47.24609375 26.73046875 C-50.11242176 27.70397165 -50.11242176 27.70397165 -51 30 C-50.0925 29.484375 -49.185 28.96875 -48.25 28.4375 C-45 27 -45 27 -42.6875 27.1875 C-41 28 -41 28 -40 30 C-42.26607052 31.03275341 -44.53681939 32.05133551 -46.8125 33.0625 C-47.45509766 33.35705078 -48.09769531 33.65160156 -48.75976562 33.95507812 C-53.66015625 36.11328125 -53.66015625 36.11328125 -57 35 C-58.75809632 32.62656997 -58.99656285 31.09971146 -59.09863281 28.13867188 C-57.8504079 24.57263199 -57.43302493 24.33053119 -54.23730469 22.66992188 C-52.55931628 21.91251917 -50.86976725 21.18041414 -49.171875 20.46875 C-47.82189423 19.87024231 -47.82189423 19.87024231 -46.44464111 19.25964355 C-43.55548302 17.98448486 -40.65360604 16.74185737 -37.75 15.5 C-35.84020457 14.66490973 -33.93133791 13.82769198 -32.0234375 12.98828125 C-28.34818106 11.37340308 -24.66751345 9.77197995 -20.98242188 8.1796875 C-15.72140873 5.89606915 -10.53668622 3.47295515 -5.37207031 0.97851562 C-3 0 -3 0 0 0 Z " fill="#21304C" transform="translate(230,88)"/>
<path d="M0 0 C2.69319228 3.4182825 3.51910322 6.73686153 4.1796875 10.9375 C6.57455668 16.95888538 12.2541048 19.40297557 17.8125 21.8125 C18.50537109 22.12380859 19.19824219 22.43511719 19.91210938 22.75585938 C21.60354491 23.5140891 23.30116554 24.25849616 25 25 C25 25.33 25 25.66 25 26 C22.36 26 19.72 26 17 26 C17 27.98 17 29.96 17 32 C12.33293438 31.30723245 8.29570679 29.6125297 4 27.75 C3.30132812 27.46253906 2.60265625 27.17507812 1.8828125 26.87890625 C-2.61734999 24.93449642 -5.84431897 22.88345624 -9 19 C-9.78515625 16.75390625 -9.78515625 16.75390625 -10.0625 14.5625 C-10.82485079 10.13642456 -12.27446403 7.54319676 -15 4 C-13.25705322 3.13153169 -11.50531337 2.28069373 -9.75 1.4375 C-8.77546875 0.96183594 -7.8009375 0.48617187 -6.796875 -0.00390625 C-3.88420186 -1.04124096 -2.78287881 -1.24792772 0 0 Z " fill="#1F2E49" transform="translate(205,109)"/>
<path d="M0 0 C2.31 0.33 4.62 0.66 7 1 C7.495 2.98 7.495 2.98 8 5 C4.78909241 7.63362739 1.49883456 9.25286975 -2.296875 10.91796875 C-3.50214844 11.44970703 -4.70742187 11.98144531 -5.94921875 12.52929688 C-7.21609696 13.08214326 -8.48302467 13.63487622 -9.75 14.1875 C-11.03276001 14.75148045 -12.31531443 15.31592874 -13.59765625 15.88085938 C-16.7297789 17.25852234 -19.86392076 18.63137343 -23 20 C-22.21361414 25.50601289 -22.21361414 25.50601289 -19.01953125 29.70703125 C-18.02308594 30.13371094 -17.02664062 30.56039062 -16 31 C-14.37885763 31.75380169 -12.75776959 32.50772024 -11.13671875 33.26171875 C-9.32173912 34.07350964 -7.50528928 34.88202023 -5.6875 35.6875 C-4.75615234 36.10322266 -3.82480469 36.51894531 -2.86523438 36.94726562 C-0.57807304 37.96769145 1.71035095 38.98517153 4 40 C4 40.66 4 41.32 4 42 C-0.62 42 -5.24 42 -10 42 C-10.33 43.98 -10.66 45.96 -11 48 C-16.50795224 47.39881099 -21.05763489 45.4835083 -26.0625 43.25 C-26.85205078 42.91484375 -27.64160156 42.5796875 -28.45507812 42.234375 C-33.17117119 40.14711839 -36.67059843 38.08014898 -40 34 C-40.8125 30.6875 -40.8125 30.6875 -41 28 C-40.34 28 -39.68 28 -39 28 C-38.608125 28.9075 -38.21625 29.815 -37.8125 30.75 C-34.08727027 37.42972227 -27.96713077 39.51994734 -21.1875 42.25 C-20.30384766 42.61351562 -19.42019531 42.97703125 -18.50976562 43.3515625 C-16.34275041 44.24179578 -14.17293031 45.12432725 -12 46 C-12 44.02 -12 42.04 -12 40 C-9.03 39.505 -9.03 39.505 -6 39 C-7.10859375 38.49210937 -8.2171875 37.98421875 -9.359375 37.4609375 C-10.82333063 36.76649701 -12.28684964 36.07113555 -13.75 35.375 C-14.47960937 35.04371094 -15.20921875 34.71242187 -15.9609375 34.37109375 C-20.80447153 32.03739099 -23.44033304 29.91996287 -26 25 C-26.7578125 22.76953125 -26.7578125 22.76953125 -27.125 20.8125 C-27.77279289 16.95674664 -27.77279289 16.95674664 -30 14 C-34.38889325 14.66498383 -37.9811485 16.18757677 -42 18 C-42.33 17.01 -42.66 16.02 -43 15 C-40.06657102 13.65757579 -37.12763748 12.32765933 -34.1875 11 C-33.35412109 10.6184375 -32.52074219 10.236875 -31.66210938 9.84375 C-30.45844727 9.30234375 -30.45844727 9.30234375 -29.23046875 8.75 C-28.49207764 8.41484375 -27.75368652 8.0796875 -26.99291992 7.734375 C-25 7 -25 7 -22 7 C-22 7.66 -22 8.32 -22 9 C-24.64738916 10.4606285 -25.89448334 11 -29 11 C-28.67 11.66 -28.34 12.32 -28 13 C-22.12624476 12.47299097 -17.50368185 10.03110501 -12.3125 7.4375 C-10.623717 6.59756944 -8.93240883 5.76269153 -7.23828125 4.93359375 C-6.49618408 4.56290771 -5.75408691 4.19222168 -4.98950195 3.81030273 C-3 3 -3 3 0 3 C0 2.01 0 1.02 0 0 Z " fill="#5FA2EE" transform="translate(234,95)"/>
<path d="M0 0 C3.65316671 1.24976756 4.78065836 1.67098753 7 5 C7.125 7.6875 7.125 7.6875 7 10 C5.68 10.66 4.36 11.32 3 12 C3 11.01 3 10.02 3 9 C-3.03253726 10.23220999 -5.99709752 12.33247986 -10.125 16.8125 C-10.87330078 17.59463867 -10.87330078 17.59463867 -11.63671875 18.39257812 C-12.62110207 19.42193979 -13.60074809 20.45585629 -14.57519531 21.49462891 C-16.67158336 23.70955843 -18.83372612 25.85356379 -21 28 C-21.495 26.515 -21.495 26.515 -22 25 C-22.71542969 25.67804688 -23.43085938 26.35609375 -24.16796875 27.0546875 C-31.4337657 33.86806717 -38.94503284 40.13138107 -47 46 C-47.97195312 46.77472656 -48.94390625 47.54945313 -49.9453125 48.34765625 C-53.9494905 50.51359908 -55.57513812 49.96725909 -60 49 C-63.1001791 47.86359419 -66.0728762 46.4962041 -69.0625 45.09765625 C-69.92352829 44.70382751 -70.78455658 44.30999878 -71.67167664 43.90423584 C-73.50558555 43.06435375 -75.33767398 42.22048688 -77.1680603 41.37295532 C-80.01391141 40.05606262 -82.86498819 38.75121188 -85.71801758 37.44995117 C-89.45753074 35.74392482 -93.19570581 34.0350495 -96.93212891 32.32226562 C-103.17347028 29.46186257 -109.41654066 26.60760807 -115.6875 23.8125 C-116.56212891 23.40974854 -117.43675781 23.00699707 -118.33789062 22.59204102 C-123.16400857 20.45655188 -126.71716328 19.56860369 -132 20 C-132.33 18.02 -132.66 16.04 -133 14 C-131.1875 13.3125 -131.1875 13.3125 -129 13 C-127.98330441 13.98302089 -126.98531267 14.98552529 -126 16 C-123.35252433 17.33753724 -120.72217162 18.5781983 -118.01171875 19.7734375 C-117.20860764 20.13412827 -116.40549652 20.49481903 -115.57804871 20.86643982 C-112.95120369 22.04360766 -110.31983537 23.21016587 -107.6875 24.375 C-105.87705405 25.17914141 -104.06667034 25.98342293 -102.25634766 26.7878418 C-99.50758588 28.00838573 -96.75827909 29.22762836 -94.00732422 30.44322205 C-89.00157738 32.65683197 -84.01164564 34.89962572 -79.04139709 37.1918335 C-76.29677466 38.45513456 -73.54421166 39.70038233 -70.78970337 40.94195557 C-69.52020367 41.51914988 -68.25430305 42.10433109 -66.99227905 42.69769287 C-65.25222954 43.51409284 -63.49747412 44.2989284 -61.7421875 45.08203125 C-60.7713623 45.52780518 -59.80053711 45.9735791 -58.80029297 46.43286133 C-54.95756126 47.21112338 -53.27015007 46.02559959 -50 44 C-47.86214461 42.49698999 -45.80099505 40.98602905 -43.75 39.375 C-43.18643799 38.93623535 -42.62287598 38.4974707 -42.04223633 38.04541016 C-34.39052299 32.02492217 -27.30336188 25.48693574 -20.59375 18.43359375 C-19 17 -19 17 -17 17 C-17 17.99 -17 18.98 -17 20 C-16.15695313 19.13375 -15.31390625 18.2675 -14.4453125 17.375 C-13.33880643 16.24973959 -12.23202112 15.12475372 -11.125 14 C-10.56941406 13.42765625 -10.01382813 12.8553125 -9.44140625 12.265625 C-7.99865596 10.80549218 -6.5025626 9.39850702 -5 8 C-4.34 8 -3.68 8 -3 8 C-3 7.34 -3 6.68 -3 6 C-3.99 5.67 -4.98 5.34 -6 5 C-3 4 -3 4 -1.17578125 4.77734375 C0.54947917 5.8515625 2.27473958 6.92578125 4 8 C3.67 6.68 3.34 5.36 3 4 C1.02 3.505 1.02 3.505 -1 3 C-0.67 2.01 -0.34 1.02 0 0 Z " fill="#5B9BE5" transform="translate(171,92)"/>
<path d="M0 0 C4.05606717 1.22816773 7.81557508 2.95970494 11.65917969 4.73388672 C12.51770538 5.12489059 13.37623108 5.51589447 14.26077271 5.91874695 C17.04673373 7.18848205 19.8294595 8.46515186 22.61230469 9.74169922 C26.4211259 11.47973779 30.23158441 13.21417356 34.04199219 14.94873047 C34.97830475 15.37554611 35.91461731 15.80236176 36.87930298 16.24211121 C45.46980876 20.15427691 54.09880053 23.97160047 62.75195312 27.74316406 C63.65204102 28.13584473 64.55212891 28.52852539 65.47949219 28.93310547 C66.23858887 29.2625415 66.99768555 29.59197754 67.77978516 29.93139648 C69.83770627 30.85565156 71.852293 31.84292948 73.86230469 32.86669922 C72.17480469 34.42919922 72.17480469 34.42919922 69.86230469 35.86669922 C65.11166564 35.45128337 60.95364048 33.25787663 56.67871094 31.28857422 C55.87815781 30.92518951 55.07760468 30.56180481 54.25279236 30.18740845 C52.53358741 29.4066337 50.81540188 28.62361109 49.09814453 27.83856201 C44.59879961 25.78211485 40.0918278 23.74253393 35.58496094 21.70263672 C34.6808548 21.29304718 33.77674866 20.88345764 32.84524536 20.4614563 C24.38734978 16.63680589 15.88634352 12.91620362 7.36230469 9.24169922 C6.71520538 8.9625769 6.06810608 8.68345459 5.40139771 8.39587402 C1.89011131 6.88207057 -1.6228615 5.3722467 -5.13769531 3.86669922 C-5.13769531 3.20669922 -5.13769531 2.54669922 -5.13769531 1.86669922 C-2.13769531 -0.13330078 -2.13769531 -0.13330078 0 0 Z " fill="#1D2E4C" transform="translate(43.1376953125,116.13330078125)"/>
<path d="M0 0 C5.40039681 0.59760028 9.77776917 2.44595465 14.67578125 4.6484375 C15.92801735 5.2017852 15.92801735 5.2017852 17.20555115 5.76631165 C18.98884691 6.55538943 20.77075925 7.34759989 22.5513916 8.14266968 C25.32511087 9.38062845 28.102862 10.6090924 30.88183594 11.83520508 C38.3498199 15.13409024 45.81080698 18.44746992 53.23991394 21.83312988 C55.0140091 22.64123823 56.79052298 23.44403022 58.56713867 24.24658203 C60.63394011 25.18224684 62.69567323 26.12921933 64.7512207 27.08935547 C65.65316162 27.49686035 66.55510254 27.90436523 67.484375 28.32421875 C68.24459961 28.67572998 69.00482422 29.02724121 69.78808594 29.3894043 C72.56250862 30.1552797 74.2591338 29.81416001 77 29 C84.58769045 24.5448423 91.27983501 19.07456063 97.69921875 13.0859375 C100.95141199 10.13742954 104.4274454 7.54469671 108 5 C106.40358839 9.1330411 103.39811316 11.72201013 100.1875 14.625 C99.61507568 15.14771484 99.04265137 15.67042969 98.45288086 16.20898438 C92.57680877 21.50202052 86.40119698 26.35681901 80 31 C79.07058594 31.8146875 78.14117187 32.629375 77.18359375 33.46875 C74 35 74 35 72.02796936 34.62841797 C71.3085466 34.36689941 70.58912384 34.10538086 69.84790039 33.8359375 C69.05098282 33.54650269 68.25406525 33.25706787 67.43299866 32.9588623 C63.65153335 31.46855958 59.94457992 29.84945015 56.25 28.15625 C55.44143555 27.79022675 54.63287109 27.42420349 53.79980469 27.04708862 C51.19810139 25.86858105 48.59909624 24.68424437 46 23.5 C42.41755369 21.87564325 38.83372794 20.25433929 35.25 18.6328125 C34.36948975 18.23389801 33.48897949 17.83498352 32.58178711 17.42398071 C25.07553769 14.02580797 17.54629805 10.6832754 10 7.375 C8.96359375 6.92060547 7.9271875 6.46621094 6.859375 5.99804688 C4.57356333 4.99720615 2.28721468 3.99762923 0 3 C0 2.01 0 1.02 0 0 Z " fill="#1E2F4E" transform="translate(42,111)"/>
<path d="M0 0 C1.22570063 0.56357772 2.44878002 1.13287889 3.66967773 1.70678711 C4.34225616 2.01730515 5.01483459 2.32782318 5.70779419 2.64775085 C7.16368475 3.32034247 8.61850365 3.99525766 10.07235718 4.67224121 C13.98107986 6.49196418 17.89775383 8.29440576 21.81420898 10.09741211 C22.62691757 10.47195526 23.43962616 10.84649841 24.27696228 11.23239136 C34.82114903 16.0813794 45.44090848 20.76059718 56.06054688 25.44140625 C58.82023606 26.65789257 61.57414382 27.88605399 64.32348633 29.12573242 C66.38133488 30.04322975 68.45114272 30.93568563 70.54321289 31.7722168 C72.74780273 32.70288086 72.74780273 32.70288086 75.79077148 34.67163086 C76.79077148 37.90600586 76.79077148 37.90600586 76.79077148 41.42163086 C76.81139648 42.59209961 76.83202148 43.76256836 76.85327148 44.96850586 C76.83264648 45.86053711 76.81202148 46.75256836 76.79077148 47.67163086 C73.9325214 44.44056555 73.38587041 41.88932228 72.79077148 37.67163086 C71.77354004 38.12489746 70.75630859 38.57816406 69.70825195 39.04516602 C65.86559361 40.75709405 62.02235435 42.46771466 58.17895508 44.17797852 C56.52841038 44.91265851 54.87801495 45.64767398 53.2277832 46.38305664 C43.1140903 50.88964442 32.98338038 55.3460478 22.79077148 59.67163086 C22.79077148 58.68163086 22.79077148 57.69163086 22.79077148 56.67163086 C38.44627381 49.64643729 54.10240868 42.62323472 69.79077148 35.67163086 C66.28429478 32.73105866 62.36491909 30.97906181 58.21264648 29.15209961 C57.46090149 28.81652039 56.70915649 28.48094116 55.93463135 28.13519287 C53.47235764 27.03780473 51.00680683 25.94803692 48.54077148 24.85913086 C46.83494747 24.10291575 45.12921922 23.34648456 43.42358398 22.58984375 C39.93199912 21.04198906 36.43887963 19.49765561 32.94506836 17.95483398 C28.83624198 16.1382313 24.73600678 14.30332047 20.63970947 12.45866394 C17.71603306 11.14359893 14.78837018 9.83759256 11.85974121 8.53359985 C10.48886512 7.92105709 9.11961253 7.30486691 7.7520752 6.68490601 C5.85278114 5.82495924 3.94777152 4.97916515 2.04077148 4.13647461 C0.97342773 3.65815186 -0.09391602 3.1798291 -1.19360352 2.68701172 C-4.38868799 1.61120567 -6.86897112 1.63614062 -10.20922852 1.67163086 C-10.86922852 1.01163086 -11.52922852 0.35163086 -12.20922852 -0.32836914 C-7.70107217 -3.16683795 -4.74158832 -1.96264603 0 0 Z " fill="#5996DE" transform="translate(157.209228515625,50.328369140625)"/>
<path d="M0 0 C0.268125 0.5775 0.53625 1.155 0.8125 1.75 C3.27948348 6.42428448 5.40580321 8.51293395 10.32421875 10.578125 C11.35224609 11.01640625 12.38027344 11.4546875 13.43945312 11.90625 C14.51130859 12.3496875 15.58316406 12.793125 16.6875 13.25 C18.31268555 13.93835938 18.31268555 13.93835938 19.97070312 14.640625 C22.64298536 15.77075317 25.31929182 16.89004157 28 18 C28 18.66 28 19.32 28 20 C23.38 20 18.76 20 14 20 C13.67 21.98 13.34 23.96 13 26 C7.49204776 25.39881099 2.94236511 23.4835083 -2.0625 21.25 C-3.24682617 20.74726563 -3.24682617 20.74726563 -4.45507812 20.234375 C-9.17117119 18.14711839 -12.67059843 16.08014898 -16 12 C-16.8125 8.6875 -16.8125 8.6875 -17 6 C-16.34 6 -15.68 6 -15 6 C-14.608125 6.9075 -14.21625 7.815 -13.8125 8.75 C-10.08727027 15.42972227 -3.96713077 17.51994734 2.8125 20.25 C3.69615234 20.61351562 4.57980469 20.97703125 5.49023438 21.3515625 C7.65724959 22.24179578 9.82706969 23.12432725 12 24 C12 22.02 12 20.04 12 18 C13.98 17.67 15.96 17.34 18 17 C16.87980469 16.46890625 15.75960937 15.9378125 14.60546875 15.390625 C13.1325522 14.67762081 11.65991018 13.9640493 10.1875 13.25 C9.44951172 12.90195313 8.71152344 12.55390625 7.95117188 12.1953125 C0.9072893 8.75305314 0.9072893 8.75305314 -1 5 C-0.6875 2.25 -0.6875 2.25 0 0 Z " fill="#5A9AE3" transform="translate(210,117)"/>
<path d="M0 0 C-0.20440859 3.37274176 -1.19923858 4.17819225 -3.7734375 6.48046875 C-4.96664689 7.39245881 -6.167673 8.29428332 -7.375 9.1875 C-8.65045747 10.15921468 -9.92518766 11.13188467 -11.19921875 12.10546875 C-11.83778809 12.58935059 -12.47635742 13.07323242 -13.13427734 13.57177734 C-15.8640586 15.6614424 -18.52640671 17.82338955 -21.1875 20 C-22.04730469 20.70125 -22.90710938 21.4025 -23.79296875 22.125 C-25.62566142 23.68197784 -27.33664954 25.26621451 -29 27 C-29.66 26.67 -30.32 26.34 -31 26 C-30.35933594 25.3709375 -29.71867188 24.741875 -29.05859375 24.09375 C-24.41127251 19.4949105 -19.92008115 14.85261831 -15.6640625 9.890625 C-6.80114784 -0.17897757 -6.80114784 -0.17897757 0 0 Z " fill="#223453" transform="translate(174,101)"/>
<path d="M0 0 C0.66 0.33 1.32 0.66 2 1 C2 1.66 2 2.32 2 3 C4.475 3.495 4.475 3.495 7 4 C7.33 5.65 7.66 7.3 8 9 C7.44570312 8.71125 6.89140625 8.4225 6.3203125 8.125 C5.59585938 7.75375 4.87140625 7.3825 4.125 7 C3.40570313 6.62875 2.68640625 6.2575 1.9453125 5.875 C0.05151023 4.86326254 0.05151023 4.86326254 -2 5 C-1.34 5.33 -0.68 5.66 0 6 C0 6.66 0 7.32 0 8 C-1.50390625 9.48046875 -1.50390625 9.48046875 -3.5625 11.1875 C-7.58675247 14.60201725 -11.32190005 18.21845349 -15 22 C-15 16.42724704 -13.56804676 14.16500388 -9.75 10.0625 C-8.53763672 8.75345703 -8.53763672 8.75345703 -7.30078125 7.41796875 C-4.90549936 4.90068608 -2.49684684 2.41630339 0 0 Z " fill="#4879B4" transform="translate(168,92)"/>
<path d="M0 0 C0 3 0 3 -1.14453125 4.5078125 C-22.95092025 25.65030675 -22.95092025 25.65030675 -33 29 C-33.33 28.01 -33.66 27.02 -34 26 C-33.46632813 25.731875 -32.93265625 25.46375 -32.3828125 25.1875 C-20.60674013 18.9938564 -9.41873606 9.41873606 0 0 Z " fill="#223455" transform="translate(149,116)"/>
<path d="M0 0 C0.268125 0.5775 0.53625 1.155 0.8125 1.75 C3.63319922 7.09448274 6.60363156 9.05453718 12.1875 11.25 C12.84169922 11.518125 13.49589844 11.78625 14.16992188 12.0625 C15.77568162 12.71886895 17.38729588 13.36088344 19 14 C18.67 14.99 18.34 15.98 18 17 C15.38934698 15.76226808 12.78705395 14.51066073 10.1875 13.25 C9.44951172 12.90195313 8.71152344 12.55390625 7.95117188 12.1953125 C0.9072893 8.75305314 0.9072893 8.75305314 -1 5 C-0.6875 2.25 -0.6875 2.25 0 0 Z " fill="#5997DF" transform="translate(210,117)"/>
<path d="M0 0 C-1.35516827 6.52944712 -1.35516827 6.52944712 -4.3125 8.6875 C-5.199375 9.120625 -6.08625 9.55375 -7 10 C-8.299375 11.11375 -8.299375 11.11375 -9.625 12.25 C-10.40875 12.8275 -11.1925 13.405 -12 14 C-12.99 13.67 -13.98 13.34 -15 13 C-12.88094537 10.82722286 -10.75527122 8.66173092 -8.625 6.5 C-8.02171875 5.87996094 -7.4184375 5.25992188 -6.796875 4.62109375 C-6.21679688 4.03457031 -5.63671875 3.44804688 -5.0390625 2.84375 C-4.50490723 2.29912109 -3.97075195 1.75449219 -3.42041016 1.19335938 C-2 0 -2 0 0 0 Z " fill="#5692D8" transform="translate(154,109)"/>
<path d="M0 0 C3.65316671 1.24976756 4.78065836 1.67098753 7 5 C7.125 7.6875 7.125 7.6875 7 10 C5.02 10.99 5.02 10.99 3 12 C3 11.01 3 10.02 3 9 C1.68 8.67 0.36 8.34 -1 8 C0.65 8 2.3 8 4 8 C3.67 6.68 3.34 5.36 3 4 C1.68 3.67 0.36 3.34 -1 3 C-0.67 2.01 -0.34 1.02 0 0 Z " fill="#5998E1" transform="translate(171,92)"/>
<path d="M0 0 C2.97 0.99 5.94 1.98 9 3 C9 3.66 9 4.32 9 5 C4.71 5 0.42 5 -4 5 C-4 4.67 -4 4.34 -4 4 C-2.02 3.67 -0.04 3.34 2 3 C1.34 2.67 0.68 2.34 0 2 C0 1.34 0 0.68 0 0 Z " fill="#60A5F2" transform="translate(229,132)"/>
<path d="M0 0 C3.375 0.8125 3.375 0.8125 5.375 1.8125 C5.045 2.8025 4.715 3.7925 4.375 4.8125 C3.818125 4.461875 3.26125 4.11125 2.6875 3.75 C-0.19697167 2.58061959 -1.65669666 3.05139658 -4.625 3.8125 C-5.615 3.8125 -6.605 3.8125 -7.625 3.8125 C-5.08724296 0.46266071 -4.32019098 -0.22345815 0 0 Z " fill="#5793DA" transform="translate(96.625,58.1875)"/>
<path d="M0 0 C0.66 0.33 1.32 0.66 2 1 C-0.72478774 4.36591427 -4.06856792 5.44226276 -8 7 C-8.33 6.01 -8.66 5.02 -9 4 C-7.54618103 3.30300448 -6.08677047 2.61766134 -4.625 1.9375 C-3.40683594 1.36322266 -3.40683594 1.36322266 -2.1640625 0.77734375 C-1.44992188 0.52082031 -0.73578125 0.26429687 0 0 Z " fill="#5B9AE4" transform="translate(200,106)"/>
<path d="M0 0 C0.99 0.33 1.98 0.66 3 1 C1.8803014 2.00593243 0.7540588 3.0045849 -0.375 4 C-1.00148437 4.556875 -1.62796875 5.11375 -2.2734375 5.6875 C-4 7 -4 7 -6 7 C-4.61990379 3.66476748 -3.15049348 1.81392049 0 0 Z " fill="#5D9EE9" transform="translate(138,123)"/>
<path d="M0 0 C0.66 0.66 1.32 1.32 2 2 C-1.24221555 3.08073852 -3.60402937 3.21676408 -7 3 C-7.66 2.34 -8.32 1.68 -9 1 C-5.66429909 -1.10025613 -3.74952434 -1.18406032 0 0 Z " fill="#538DD1" transform="translate(154,49)"/>
<path d="M0 0 C1.65 0.33 3.3 0.66 5 1 C5.33 2.65 5.66 4.3 6 6 C2.535 4.02 2.535 4.02 -1 2 C-0.67 1.34 -0.34 0.68 0 0 Z " fill="#263B5D" transform="translate(170,95)"/>
<path d="M0 0 C4.05606165 0.46800711 7.46588679 0.87953208 11 3 C7.44706507 4.14947895 6.20023331 4.0868937 2.6875 2.5625 C1.800625 2.046875 0.91375 1.53125 0 1 C0 0.67 0 0.34 0 0 Z " fill="#5D9EEA" transform="translate(107,144)"/>
<path d="M0 0 C0 3 0 3 -1.53125 4.82421875 C-2.1809375 5.43910156 -2.830625 6.05398437 -3.5 6.6875 C-4.1496875 7.31011719 -4.799375 7.93273437 -5.46875 8.57421875 C-5.9740625 9.04472656 -6.479375 9.51523438 -7 10 C-7.66 9.34 -8.32 8.68 -9 8 C-6.03 5.36 -3.06 2.72 0 0 Z " fill="#2A4368" transform="translate(149,116)"/>
<path d="M0 0 C2.91517292 1.07401108 4.77810176 1.77810176 7 4 C5.02 4.99 5.02 4.99 3 6 C3 5.34 3 4.68 3 4 C1.68 3.34 0.36 2.68 -1 2 C-0.67 1.34 -0.34 0.68 0 0 Z " fill="#5591D7" transform="translate(37,111)"/>
</svg>
